<?xml version="1.0" encoding="UTF-8"?>
<svg width="64" height="64" viewBox="0 0 64 64" fill="currentColor" xmlns="http://www.w3.org/2000/svg">
  <path
    d="M58.0062 20.4382C57.7303 20.0998 57.384 19.8274 56.992 19.6404C56.6 19.4533 56.1721 19.3564 55.7388 19.3564H55.6621H55.6665H48.121L50.2129 9.04294C50.3172 8.58698 50.3184 8.11307 50.2167 7.65654C50.1149 7.20001 49.9128 6.77263 49.6253 6.40626L49.6296 6.41293C49.3526 6.07484 49.0054 5.8028 48.6128 5.61621C48.2201 5.42961 47.7916 5.33304 47.3579 5.33337H47.2855H47.2899C45.3164 5.39779 43.6871 6.81054 43.2661 8.68753L43.2595 8.71641L42.6916 11.5197C42.674 11.5908 42.6433 11.6574 42.628 11.7285L41.0755 19.3586H28.3724L30.4644 9.04516C30.5686 8.5892 30.5699 8.11529 30.4681 7.65876C30.3664 7.20223 30.1642 6.77485 29.8767 6.40848L29.8811 6.41515C29.6041 6.07706 29.2569 5.80503 28.8642 5.61843C28.4715 5.43183 28.0431 5.33526 27.6093 5.3356H27.537H27.5414C25.5678 5.40001 23.9386 6.81276 23.5175 8.68975L23.511 8.71863L22.9189 11.6352C22.9189 11.6685 22.897 11.6974 22.8904 11.7285L21.351 19.3586H13.1345C11.161 19.4231 9.53174 20.8336 9.10852 22.7106L9.10194 22.7395C8.99707 23.1956 8.99526 23.6698 9.09664 24.1268C9.19802 24.5837 9.39997 25.0115 9.68743 25.3784L9.68304 25.3717C10.2269 26.0336 11.0404 26.4535 11.9526 26.4535H12.0272H12.0228H19.9104L17.6693 37.4933H9.44402C7.47049 37.5577 5.84122 38.9705 5.41801 40.8475L5.41143 40.8763C5.30824 41.3315 5.30727 41.8043 5.40861 42.2599C5.50994 42.7155 5.71099 43.1422 5.99691 43.5086L5.99253 43.5019C6.53854 44.1639 7.35207 44.5837 8.26429 44.5837H8.33884H8.33446H16.222L14.1169 54.9527C14.0127 55.4087 14.0114 55.8826 14.1132 56.3391C14.2149 56.7956 14.4171 57.223 14.7046 57.5894L14.7002 57.5827C15.2462 58.2447 16.0598 58.6645 16.972 58.6645H17.0443H17.04C17.9825 58.6343 18.8886 58.2888 19.6169 57.6821C20.3453 57.0753 20.8548 56.2413 21.066 55.3103L21.0725 55.2814L23.2434 44.5881H35.953L33.8479 54.9571C33.7437 55.4131 33.7424 55.887 33.8442 56.3435C33.9459 56.8001 34.1481 57.2275 34.4356 57.5938L34.4312 57.5872C34.9772 58.2491 35.7908 58.6667 36.703 58.6667H36.7753H36.7709C37.7133 58.6368 38.6193 58.2914 39.3473 57.6845C40.0754 57.0777 40.5844 56.2435 40.7948 55.3125L40.8013 55.2837L42.9722 44.5903H50.8664C51.8086 44.5603 52.7145 44.2151 53.4428 43.6088C54.1711 43.0025 54.6808 42.169 54.8924 41.2384L54.899 41.2095C55.007 40.7542 55.0112 40.2799 54.9113 39.8227C54.8114 39.3654 54.6099 38.9372 54.3223 38.5706L54.3267 38.5773C54.0493 38.2389 53.7018 37.9665 53.3088 37.7795C52.9158 37.5926 52.4869 37.4956 52.0527 37.4955H51.9738H51.9782H44.4195L46.6606 26.4557H54.5547C55.4972 26.4255 56.4034 26.08 57.1317 25.4733C57.86 24.8665 58.3695 24.0325 58.5807 23.1015L58.5873 23.0726C58.6917 22.6163 58.6931 22.1421 58.5913 21.6851C58.4896 21.2282 58.2873 20.8005 57.9996 20.4337L58.004 20.4404L58.0062 20.4382ZM24.6951 37.4866L26.9361 26.4468H39.6457L37.4047 37.4866H24.6951Z" />
</svg>