<svg viewBox="0 0 64 64" fill="currentColor" xmlns="http://www.w3.org/2000/svg">
  <path
    d="M57.635 47.442A20.005 20.005 0 0042.39 18.147 20.002 20.002 0 106.365 35.442L4.82 40.854a3.5 3.5 0 004.326 4.327l5.414-1.546a19.958 19.958 0 007.047 2.22 20.008 20.008 0 0027.836 9.78l5.413 1.546a3.5 3.5 0 004.326-4.326l-1.546-5.413zm-3.872-1.277a2 2 0 00-.204 1.572l1.529 5.351-5.352-1.529a2 2 0 00-1.571.204 16.008 16.008 0 01-22.085-5.871 19.976 19.976 0 0017.594-23.465 16.005 16.005 0 0110.09 23.738z" />
</svg>