<?xml version="1.0" encoding="UTF-8"?>
<svg viewBox="0 0 64 64" fill="currentColor" xmlns="http://www.w3.org/2000/svg">
  <path fill-rule="evenodd" clip-rule="evenodd"
    d="M38.5143 19.7633C38.0337 20.2096 38.0337 20.9333 38.5143 21.3796L49.9518 32L38.5143 42.6205C38.0337 43.0668 38.0337 43.7904 38.5143 44.2367C38.995 44.683 39.7743 44.683 40.2549 44.2367L52.5626 32.8081C53.0433 32.3618 53.0433 31.6382 52.5626 31.1919L40.2549 19.7633C39.7743 19.317 38.995 19.317 38.5143 19.7633Z" />
  <path fill-rule="evenodd" clip-rule="evenodd"
    d="M13.899 19.7633C13.4183 20.2096 13.4183 20.9333 13.899 21.3796L25.3364 32L13.899 42.6205C13.4183 43.0668 13.4183 43.7904 13.899 44.2367C14.3796 44.683 15.1589 44.683 15.6396 44.2367L27.9473 32.8081C28.4279 32.3618 28.4279 31.6382 27.9473 31.1919L15.6396 19.7633C15.1589 19.317 14.3796 19.317 13.899 19.7633Z" />
</svg>