<?xml version="1.0" encoding="UTF-8"?>
<svg viewBox="0 0 64 64" fill="currentColor" xmlns="http://www.w3.org/2000/svg">
  <path fill-rule="evenodd" clip-rule="evenodd"
    d="M25.4857 19.7633C25.9663 20.2096 25.9663 20.9333 25.4857 21.3796L14.0482 32L25.4857 42.6205C25.9663 43.0668 25.9663 43.7904 25.4857 44.2367C25.005 44.683 24.2257 44.683 23.7451 44.2367L11.4374 32.8081C10.9567 32.3618 10.9567 31.6382 11.4374 31.1919L23.7451 19.7633C24.2257 19.317 25.005 19.317 25.4857 19.7633Z" />
  <path fill-rule="evenodd" clip-rule="evenodd"
    d="M50.101 19.7633C50.5817 20.2096 50.5817 20.9333 50.101 21.3796L38.6636 32L50.101 42.6205C50.5817 43.0668 50.5817 43.7904 50.101 44.2367C49.6204 44.683 48.8411 44.683 48.3604 44.2367L36.0527 32.8081C35.5721 32.3618 35.5721 31.6382 36.0527 31.1919L48.3604 19.7633C48.8411 19.317 49.6204 19.317 50.101 19.7633Z" />
</svg>