<?xml version="1.0" encoding="UTF-8"?>
<svg width="64" height="64" viewBox="0 0 64 64" fill="currentColor" xmlns="http://www.w3.org/2000/svg">
  <path
    d="M52.2413 11.7589C49.8345 9.35212 46.5701 8 43.1664 8C39.7626 8 36.4983 9.35212 34.0914 11.7589L29.205 16.6453C29.0214 16.8286 28.8758 17.0463 28.7764 17.2859C28.677 17.5255 28.6258 17.7824 28.6257 18.0418C28.6256 18.3013 28.6766 18.5582 28.7758 18.7979C28.8751 19.0375 29.0206 19.2553 29.204 19.4388C29.3874 19.6222 29.6052 19.7677 29.8449 19.8669C30.0846 19.9662 30.3415 20.0172 30.6009 20.0171C30.8604 20.017 31.1172 19.9658 31.3568 19.8664C31.5965 19.767 31.8141 19.6213 31.9975 19.4378L36.8839 14.5513C37.7089 13.7263 38.6883 13.0719 39.7663 12.6254C40.8442 12.1788 41.9995 11.949 43.1663 11.949C44.333 11.949 45.4884 12.1788 46.5663 12.6253C47.6443 13.0718 48.6237 13.7262 49.4488 14.5512C50.2738 15.3762 50.9282 16.3557 51.3747 17.4336C51.8213 18.5116 52.0511 19.6669 52.0511 20.8336C52.0511 22.0004 51.8213 23.1557 51.3748 24.2337C50.9283 25.3116 50.2739 26.2911 49.4489 27.1161L42.4685 34.097C40.8009 35.7608 38.5415 36.6952 36.1859 36.6952C33.8303 36.6952 31.5708 35.7608 29.9033 34.097C29.5329 33.7271 29.0308 33.5195 28.5073 33.5196C27.9839 33.5198 27.482 33.7278 27.1118 34.098C26.7417 34.4681 26.5337 34.97 26.5335 35.4935C26.5333 36.0169 26.741 36.519 27.1108 36.8894C29.5196 39.2925 32.7832 40.642 36.1858 40.642C39.5883 40.642 42.8519 39.2925 45.2607 36.8894L52.2413 29.9085C54.648 27.5017 56 24.2374 56 20.8337C56 17.4301 54.648 14.1658 52.2413 11.7589L52.2413 11.7589Z" />
  <path
    d="M31.9972 44.5676L27.1108 49.454C26.2858 50.279 25.3063 50.9335 24.2284 51.38C23.1505 51.8265 21.9951 52.0563 20.8284 52.0563C19.6616 52.0563 18.5063 51.8265 17.4283 51.38C16.3504 50.9335 15.3709 50.2791 14.5459 49.4541C13.7209 48.6291 13.0664 47.6496 12.6199 46.5717C12.1734 45.4938 11.9436 44.3384 11.9436 43.1717C11.9436 42.0049 12.1734 40.8496 12.6198 39.7716C13.0663 38.6937 13.7208 37.7142 14.5458 36.8892L21.5262 29.9084C23.1936 28.2444 25.4531 27.3099 27.8088 27.3099C30.1645 27.3099 32.4239 28.2444 34.0914 29.9084C34.2747 30.0919 34.4924 30.2376 34.732 30.337C34.9716 30.4364 35.2285 30.4876 35.4879 30.4877C35.7473 30.4878 36.0042 30.4368 36.2439 30.3376C36.4836 30.2383 36.7014 30.0928 36.8849 29.9094C37.0683 29.7259 37.2138 29.5082 37.313 29.2685C37.4123 29.0288 37.4633 28.7719 37.4632 28.5124C37.4631 28.253 37.4119 27.9962 37.3125 27.7565C37.2131 27.5169 37.0674 27.2992 36.8838 27.1159C34.475 24.7128 31.2114 23.3633 27.8089 23.3633C24.4064 23.3633 21.1428 24.7128 18.734 27.1159L11.7534 34.0968C9.34898 36.5041 7.99894 39.7677 8 43.1701C8.00106 46.5724 9.35313 49.8352 11.759 52.241C14.1649 54.6468 17.4276 55.9989 20.83 55.9999C24.2324 56.0009 27.4959 54.6508 29.9032 52.2464L34.7896 47.36C35.1595 46.9896 35.3671 46.4875 35.3669 45.9641C35.3668 45.4407 35.1587 44.9387 34.7886 44.5686C34.4185 44.1985 33.9165 43.9905 33.3931 43.9903C32.8697 43.9901 32.3676 44.1977 31.9972 44.5676H31.9972Z" />
</svg>