<?xml version="1.0" encoding="UTF-8"?>
<svg viewBox="0 0 64 64" fill="currentColor" xmlns="http://www.w3.org/2000/svg">
  <path
    d="M33.4285 6C28.0036 6 22.7006 7.60866 18.19 10.6225C13.6794 13.6364 10.1638 17.9202 8.08777 22.9321C6.01176 27.944 5.46859 33.459 6.52692 38.7796C7.58526 44.1002 10.1976 48.9875 14.0335 52.8235C17.8695 56.6594 22.7568 59.2718 28.0774 60.3301C33.398 61.3884 38.913 60.8453 43.9249 58.7693C48.9368 56.6933 53.2206 53.1777 56.2345 48.6671C59.2484 44.1565 60.857 38.8534 60.857 33.4286C60.8488 26.1566 57.9564 19.1848 52.8143 14.0427C47.6722 8.90066 40.7004 6.00823 33.4285 6ZM47.2349 22.3843L39.8253 38.7735C39.608 39.254 39.2186 39.6358 38.7338 39.8435L23.0688 46.5572C22.6813 46.7233 22.2528 46.7695 21.8387 46.6898C21.4246 46.6101 21.0439 46.4081 20.7457 46.11C20.4475 45.8118 20.2455 45.4311 20.1658 45.017C20.086 44.603 20.1322 44.1745 20.2983 43.7869L27.0117 28.1216C27.219 27.6383 27.5993 27.2498 28.078 27.0322L44.4392 19.5945C44.8298 19.4169 45.2654 19.3627 45.6877 19.439C46.11 19.5153 46.4989 19.7186 46.8027 20.0217C47.1065 20.3249 47.3106 20.7134 47.3878 21.1355C47.465 21.5577 47.4117 21.9933 47.2349 22.3843Z" />
</svg>