<?xml version="1.0" encoding="UTF-8"?>
<svg viewBox="0 0 64 64" fill="currentColor" xmlns="http://www.w3.org/2000/svg">
  <path fill-rule="evenodd" clip-rule="evenodd"
    d="M32 56C45.2548 56 56 45.2548 56 32C56 18.7452 45.2548 8 32 8C18.7452 8 8 18.7452 8 32C8 45.2548 18.7452 56 32 56ZM36.3611 22.0011C38.2591 22.321 40.1065 22.8783 41.8572 23.6591C41.8648 23.6617 41.8717 23.6658 41.8775 23.6712C41.8833 23.6765 41.8879 23.683 41.891 23.6902C44.9403 28.0474 46.4472 32.9637 45.8836 38.623C45.8827 38.635 45.8791 38.6467 45.873 38.6572C45.8668 38.6677 45.8583 38.6768 45.8481 38.6836C43.8078 40.1528 41.5245 41.2731 39.0965 41.9962C39.0794 42.0014 39.061 42.0013 39.044 41.9957C39.027 41.99 39.0123 41.9793 39.002 41.965C38.4924 41.2763 38.0283 40.5482 37.6233 39.7856C37.6178 39.7754 37.6146 39.7641 37.6137 39.7525C37.6128 39.741 37.6144 39.7294 37.6183 39.7184C37.6225 39.7071 37.6292 39.6968 37.638 39.6883C37.6467 39.6798 37.6573 39.6733 37.6689 39.6692C38.3983 39.4024 39.1033 39.0765 39.7766 38.6951C39.7888 38.688 39.799 38.6781 39.8063 38.6663C39.8137 38.6544 39.8178 38.641 39.8185 38.6272C39.8192 38.6134 39.8163 38.5996 39.8102 38.5872C39.804 38.5747 39.7948 38.5639 39.7833 38.5557C39.6416 38.4524 39.4998 38.3442 39.3648 38.236C39.3524 38.2264 39.3375 38.2202 39.3217 38.2182C39.306 38.2162 39.29 38.2183 39.2754 38.2245C34.9099 40.1858 30.1259 40.1858 25.7063 38.2245C25.6923 38.2186 25.6768 38.2166 25.6617 38.2186C25.6465 38.2206 25.6322 38.2266 25.6203 38.236C25.4853 38.3442 25.3435 38.4524 25.2018 38.5557C25.1909 38.564 25.1822 38.5747 25.1765 38.5869C25.1667 38.6057 25.1648 38.6274 25.1711 38.6476C25.1774 38.6677 25.1914 38.6847 25.2102 38.6951C25.885 39.0731 26.5892 39.3993 27.3162 39.6708C27.3275 39.6747 27.3379 39.6809 27.3466 39.6889C27.3597 39.7011 27.3685 39.7171 27.3715 39.7345C27.3746 39.752 27.3717 39.7699 27.3634 39.7856C26.9652 40.5498 26.5028 41.2763 25.9831 41.965C25.9728 41.9793 25.9581 41.99 25.9411 41.9957C25.9241 42.0013 25.9057 42.0014 25.8886 41.9962C23.4647 41.2708 21.1851 40.1507 19.1471 38.6836C19.1285 38.6689 19.1133 38.6459 19.1117 38.623C18.6409 33.7279 19.601 28.7706 23.1009 23.6886C23.1088 23.675 23.1213 23.6646 23.1363 23.6591C24.8862 22.8768 26.734 22.3193 28.6324 22.0011C28.6496 21.9986 28.6672 22.0011 28.6828 22.0084C28.6985 22.0157 28.7115 22.0275 28.7202 22.0421C28.9781 22.4844 29.2102 22.9405 29.4154 23.4082C31.4613 23.1064 33.5423 23.1064 35.5882 23.4082C35.7722 22.9883 36.0354 22.4521 36.2734 22.0421C36.2818 22.0273 36.2948 22.0154 36.3105 22.0081C36.3262 22.0008 36.3439 21.9983 36.3611 22.0011ZM25.5967 32.9982C25.5967 34.4544 26.6918 35.6417 28.0233 35.6417C29.3749 35.6417 30.4499 34.4544 30.4499 32.9982C30.4701 31.5502 29.3851 30.353 28.0233 30.353C26.6716 30.353 25.5967 31.5403 25.5967 32.9982ZM34.5673 32.9982C34.5673 34.4544 35.6642 35.6417 36.9939 35.6417C38.3557 35.6417 39.4205 34.4544 39.4205 32.9982C39.4424 31.5502 38.3557 30.353 36.9939 30.353C35.6422 30.353 34.5673 31.5403 34.5673 32.9982Z" />
</svg>