<?xml version="1.0" encoding="UTF-8"?>
<svg width="36" height="36" viewBox="0 0 36 36" fill="currentColor" xmlns="http://www.w3.org/2000/svg">
  <path
    d="M21.6 23.25L19.5 25.875L17.4 23.25H13.5C13.3011 23.25 13.1103 23.171 12.9697 23.0303C12.829 22.8897 12.75 22.6989 12.75 22.5V14.3273C12.75 14.1283 12.829 13.9376 12.9697 13.7969C13.1103 13.6563 13.3011 13.5773 13.5 13.5773H25.5C25.6989 13.5773 25.8897 13.6563 26.0303 13.7969C26.171 13.9376 26.25 14.1283 26.25 14.3273V22.5C26.25 22.6989 26.171 22.8897 26.0303 23.0303C25.8897 23.171 25.6989 23.25 25.5 23.25H21.6ZM10.5 10.5H23.25V12H11.25V20.25H9.75V11.25C9.75 11.0511 9.82902 10.8603 9.96967 10.7197C10.1103 10.579 10.3011 10.5 10.5 10.5V10.5Z" />
</svg>