<?xml version="1.0" encoding="UTF-8"?>
<svg viewBox="0 0 64 64" fill="currentColor" xmlns="http://www.w3.org/2000/svg">
  <path fill-rule="evenodd" clip-rule="evenodd"
    d="M32 56C18.7452 56 8 45.2548 8 32C8 18.7452 18.7452 8 32 8C45.2548 8 56 18.7452 56 32C56 45.2548 45.2548 56 32 56ZM32.3344 30.653C34.2995 30.653 43.8544 25.28 43.8544 25.28L43.8698 24.32C43.8698 23.2602 43.0096 22.4 41.9469 22.4H22.7219C21.6602 22.4 20.8 23.2602 20.8 24.32V25.1754C20.8 25.1754 30.4595 30.653 32.3344 30.653ZM20.8154 28.16C20.8144 28.16 30.4595 33.293 32.3344 33.293C34.3898 33.293 43.8544 28.16 43.8544 28.16L43.8698 39.68C43.8698 40.7398 43.0096 41.6 41.9469 41.6H22.7219C21.6611 41.6 20.8 40.7398 20.8 39.68L20.8154 28.16Z" />
</svg>