<?xml version="1.0" encoding="UTF-8"?>
<svg width="64" height="64" viewBox="0 0 64 64" fill="currentColor" xmlns="http://www.w3.org/2000/svg">
    <path
        d="M54 38H10C9.46957 38 8.96086 38.2107 8.58579 38.5858C8.21071 38.9609 8 39.4696 8 40C8 40.5304 8.21071 41.0391 8.58579 41.4142C8.96086 41.7893 9.46957 42 10 42H54C54.5304 42 55.0391 41.7893 55.4142 41.4142C55.7893 41.0391 56 40.5304 56 40C56 39.4696 55.7893 38.9609 55.4142 38.5858C55.0391 38.2107 54.5304 38 54 38Z" />
    <path
        d="M10 26H54C54.5304 26 55.0391 25.7893 55.4142 25.4142C55.7893 25.0391 56 24.5304 56 24C56 23.4696 55.7893 22.9609 55.4142 22.5858C55.0391 22.2107 54.5304 22 54 22H10C9.46957 22 8.96086 22.2107 8.58579 22.5858C8.21071 22.9609 8 23.4696 8 24C8 24.5304 8.21071 25.0391 8.58579 25.4142C8.96086 25.7893 9.46957 26 10 26Z" />
</svg>