<?xml version="1.0" encoding="UTF-8"?>
<svg viewBox="0 0 64 64" fill="currentColor" xmlns="http://www.w3.org/2000/svg">
  <path
    d="M46.5422 41.2308H45.5951C45.1797 41.2308 44.8695 40.8652 44.9157 40.4498C44.9415 40.2357 44.9545 40.016 44.9545 39.7926V38.8751C44.9545 36.7409 44.3083 34.7526 43.1988 33.0911C42.8905 32.624 43.2006 32 43.7582 32H44.0388C47.2751 32 49.5385 34.7545 49.5385 38.1422C49.5385 39.8462 48.1945 41.2308 46.5422 41.2308ZM38.9231 26C38.9231 23.4782 40.3723 21.8462 42.6154 21.8462C44.8585 21.8462 46.3077 23.4782 46.3077 26C46.3077 28.2911 44.6517 30.1538 42.6154 30.1538C40.5791 30.1538 38.9231 28.2911 38.9231 26ZM42.1538 39.7926C42.1538 41.6037 40.6437 43.0769 38.7902 43.0769H25.2117C23.3545 43.0769 21.8462 41.6037 21.8462 39.7926V38.8751C21.8462 34.5754 25.4314 31.0769 29.8363 31.0769H34.1655C38.5705 31.0769 42.1538 34.5754 42.1538 38.8751V39.7926ZM17.6923 26C17.6923 23.4782 19.1415 21.8462 21.3846 21.8462C23.6277 21.8462 25.0769 23.4782 25.0769 26C25.0769 28.2911 23.4209 30.1538 21.3846 30.1538C19.3483 30.1538 17.6923 28.2911 17.6923 26ZM20.8012 33.0911C19.6935 34.7526 19.0455 36.7409 19.0455 38.8751V39.7926C19.0455 40.016 19.0603 40.2357 19.0843 40.4498C19.1323 40.8652 18.8203 41.2308 18.4068 41.2308H17.4578C15.8055 41.2308 14.4615 39.8462 14.4615 38.1422C14.4615 34.7545 16.7268 32 19.9612 32H20.2418C20.7994 32 21.1114 32.624 20.8012 33.0911ZM32 17.2308C35.1329 17.2308 37.0769 19.3538 37.0769 22.7692C37.0769 25.8246 34.8006 28.3077 32 28.3077C29.2012 28.3077 26.9231 25.8246 26.9231 22.7692C26.9231 19.3538 28.8689 17.2308 32 17.2308ZM32 8C18.7668 8 8 18.7668 8 32C8 45.2351 18.7668 56 32 56C45.2351 56 56 45.2351 56 32C56 18.7668 45.2351 8 32 8Z" />
</svg>