<?xml version="1.0" encoding="UTF-8"?>
<svg viewBox="0 0 64 64" fill="currentColor" xmlns="http://www.w3.org/2000/svg">
  <path
    d="M32.0432 8.17993C18.8147 8.17993 8.08765 19.0878 8.08765 32.5445C8.08765 43.3096 14.9516 52.4426 24.4699 55.6643C25.6672 55.8899 26.1067 55.1358 26.1067 54.4922C26.1067 53.9112 26.0845 51.9919 26.0742 49.956C19.4097 51.4299 18.0034 47.0812 18.0034 47.0812C16.9137 44.265 15.3436 43.5161 15.3436 43.5161C13.1701 42.0039 15.5074 42.035 15.5074 42.035C17.913 42.2065 19.1796 44.5458 19.1796 44.5458C21.3162 48.2707 24.7837 47.1938 26.1507 46.5712C26.3657 44.9969 26.9866 43.9212 27.6716 43.3132C22.3508 42.6971 16.7574 40.6079 16.7574 31.2719C16.7574 28.6118 17.6932 26.4383 19.2256 24.732C18.9769 24.1179 18.1569 21.6402 19.4577 18.2841C19.4577 18.2841 21.4693 17.6293 26.0472 20.7816C27.9581 20.2418 30.0074 19.971 32.0432 19.9618C34.0791 19.971 36.13 20.2418 38.0444 20.7816C42.6167 17.6293 44.6256 18.2841 44.6256 18.2841C45.9295 21.6402 45.1091 24.1179 44.8604 24.732C46.3964 26.4383 47.3259 28.6118 47.3259 31.2719C47.3259 40.6301 41.7218 42.6906 36.3874 43.2938C37.2467 44.0499 38.0123 45.5327 38.0123 47.8059C38.0123 51.0655 37.9845 53.6893 37.9845 54.4922C37.9845 55.1406 38.4157 55.9003 39.63 55.6611C49.1431 52.4357 55.9984 43.3059 55.9984 32.5445C55.9984 19.0878 45.273 8.17993 32.0432 8.17993Z" />
  <path
    d="M17.1608 43.1623C17.1081 43.2838 16.9208 43.3197 16.7503 43.2366C16.5765 43.1571 16.4789 42.9921 16.5353 42.8706C16.5868 42.746 16.7745 42.7117 16.9478 42.7944C17.122 42.8743 17.2211 43.0409 17.1608 43.1623Z" />
  <path
    d="M18.1312 44.263C18.0169 44.3707 17.7936 44.3207 17.642 44.1504C17.4854 43.9806 17.456 43.7534 17.5718 43.6441C17.6896 43.5363 17.9062 43.5868 18.0633 43.7566C18.22 43.9285 18.2506 44.1541 18.1312 44.263Z" />
  <path
    d="M19.0757 45.6662C18.9289 45.7699 18.6889 45.6726 18.5405 45.456C18.3938 45.2393 18.3938 44.9795 18.5437 44.8754C18.6925 44.7713 18.9289 44.8649 19.0792 45.0799C19.2256 45.2998 19.2256 45.5601 19.0757 45.6662Z" />
  <path
    d="M20.3697 47.0219C20.2384 47.1692 19.9587 47.1297 19.754 46.9287C19.5446 46.7322 19.4863 46.4534 19.618 46.3062C19.7509 46.1585 20.0321 46.2001 20.2384 46.3994C20.4463 46.5955 20.5097 46.8763 20.3697 47.0219Z" />
  <path
    d="M22.1548 47.8091C22.0969 48 21.8276 48.0867 21.5562 48.0056C21.2853 47.9221 21.108 47.6986 21.1627 47.5057C21.219 47.3137 21.4896 47.2233 21.7629 47.31C22.0334 47.3932 22.2112 47.6151 22.1548 47.8091Z" />
  <path
    d="M24.1153 47.9551C24.122 48.156 23.892 48.3227 23.6071 48.3259C23.3207 48.3327 23.089 48.1701 23.0859 47.9724C23.0859 47.7695 23.3108 47.6045 23.5972 47.5996C23.882 47.594 24.1153 47.7554 24.1153 47.9551Z" />
  <path
    d="M25.9397 47.6392C25.9738 47.8353 25.7759 48.0366 25.493 48.0899C25.2149 48.1419 24.9575 48.0209 24.9222 47.8264C24.8877 47.6255 25.0892 47.4241 25.3669 47.3721C25.6501 47.3221 25.9036 47.4399 25.9397 47.6392Z" />
</svg>