<svg viewBox="0 0 64 64" fill="currentColor" xmlns="http://www.w3.org/2000/svg">
  <path
    d="M50 38a7.925 7.925 0 00-4.875 1.675l-5.775-4.5A7.924 7.924 0 0040 32a4.042 4.042 0 00-.025-.55l3.325-1.1A7.975 7.975 0 1042 26c-.004.184.004.367.025.55l-3.325 1.1A7.975 7.975 0 0032 24c-.443.008-.886.04-1.325.1l-1.7-3.85A7.925 7.925 0 0032 14a8 8 0 10-8 8c.443-.008.886-.04 1.325-.1l1.7 3.85A7.925 7.925 0 0024 32a8.1 8.1 0 00.875 3.65l-6.425 5.7A8 8 0 1022 48a8.1 8.1 0 00-.875-3.65l6.425-5.7a7.975 7.975 0 009.325-.325l5.775 4.5A7.924 7.924 0 0042 46a8 8 0 108-8zm0-16a4 4 0 110 8 4 4 0 010-8zm-30-8a4 4 0 118 0 4 4 0 01-8 0zm-6 38a4 4 0 110-8 4 4 0 010 8zm14-20a4 4 0 118 0 4 4 0 01-8 0zm22 18a4 4 0 110-8 4 4 0 010 8z" />
</svg>