<svg viewBox="0 0 64 64" fill="currentColor" xmlns="http://www.w3.org/2000/svg">
  <path
    d="M29.94 53.7a1.997 1.997 0 01-2.425 1.456l-7.535-1.884a4.023 4.023 0 01-1.654-.862l-5.638-4.9a2 2 0 112.624-3.02l5.638 4.901 7.535 1.884A2 2 0 0129.94 53.7zM63.09 29.89a3.972 3.972 0 01-2.016 2.346l-5.817 2.909-3.737 4.37-.04.045-.038.04-.028.03-9.199 9.2a4.025 4.025 0 01-3.799 1.052l-14.489-3.623a3.977 3.977 0 01-1.494-.729L8.926 34.967l-6-3a4 4 0 01-1.757-5.43l6.148-11.773a4.02 4.02 0 015.335-1.727l5.594 2.797 12.168-3.547a4.004 4.004 0 012.768.196l8.25 3.732h4.096l5.82-2.91a4.019 4.019 0 015.335 1.727l6.148 11.774a3.969 3.969 0 01.26 3.083zm-16.16 8.567l-7.912-5.754L37 34.215a10.051 10.051 0 01-12 0L23.645 33.2a4 4 0 01-.429-6.028L33 17.387c.143-.14.296-.27.458-.389l-1.925-.871-12.18 3.551-6.81 13.04 12.354 9.66 14.49 3.623 7.544-7.545zm4.672-5.192l-6.814-13.049h-8.959L26.044 30l1.355 1.016a6.031 6.031 0 007.2 0l3.2-2.4a2 2 0 012.376-.017l9.505 6.912 1.92-2.246z" />
</svg>