<?xml version="1.0" encoding="UTF-8"?>
<svg width="64" height="64" viewBox="0 0 64 64" fill="currentColor" xmlns="http://www.w3.org/2000/svg">
  <path
    d="M53.3333 37.3331H41.8667L43.8133 26.6664H53.3333C54.0406 26.6664 54.7189 26.3855 55.219 25.8854C55.7191 25.3853 56 24.707 56 23.9998C56 23.2925 55.7191 22.6143 55.219 22.1142C54.7189 21.6141 54.0406 21.3331 53.3333 21.3331H44.7733L46.6133 11.1731C46.686 10.8166 46.685 10.449 46.6103 10.0929C46.5356 9.73674 46.3889 9.39968 46.179 9.10242C45.9692 8.80516 45.7008 8.55399 45.3902 8.36436C45.0797 8.17473 44.7336 8.05066 44.3733 7.99978C44.0151 7.91444 43.6431 7.90422 43.2807 7.96977C42.9183 8.03532 42.5734 8.17522 42.2678 8.38065C41.9622 8.58608 41.7024 8.85258 41.5048 9.16338C41.3073 9.47417 41.1763 9.82251 41.12 10.1864L39.12 21.3331H28.7733L30.6133 11.1731C30.686 10.8166 30.685 10.449 30.6103 10.0929C30.5356 9.73674 30.3889 9.39968 30.179 9.10242C29.9692 8.80516 29.7008 8.55399 29.3902 8.36436C29.0797 8.17473 28.7336 8.05066 28.3733 7.99978C28.0151 7.91444 27.6431 7.90422 27.2807 7.96977C26.9183 8.03532 26.5734 8.17522 26.2678 8.38065C25.9622 8.58608 25.7024 8.85258 25.5048 9.16338C25.3073 9.47417 25.1763 9.82251 25.12 10.1864L23.12 21.3331H10.6667C9.95942 21.3331 9.28115 21.6141 8.78105 22.1142C8.28095 22.6143 8 23.2925 8 23.9998C8 24.707 8.28095 25.3853 8.78105 25.8854C9.28115 26.3855 9.95942 26.6664 10.6667 26.6664H22.1333L20.1867 37.3331H10.6667C9.95942 37.3331 9.28115 37.6141 8.78105 38.1142C8.28095 38.6143 8 39.2925 8 39.9998C8 40.707 8.28095 41.3853 8.78105 41.8854C9.28115 42.3855 9.95942 42.6664 10.6667 42.6664H19.2267L17.3867 52.8264C17.314 53.183 17.315 53.5506 17.3897 53.9067C17.4644 54.2628 17.6111 54.5999 17.821 54.8971C18.0308 55.1944 18.2992 55.4456 18.6098 55.6352C18.9203 55.8248 19.2664 55.9489 19.6267 55.9998C19.9849 56.0851 20.3569 56.0953 20.7193 56.0298C21.0817 55.9642 21.4266 55.8243 21.7322 55.6189C22.0378 55.4135 22.2976 55.147 22.4952 54.8362C22.6927 54.5254 22.8237 54.177 22.88 53.8131L24.88 42.6664H35.2267L33.3867 52.8264C33.314 53.183 33.315 53.5506 33.3897 53.9067C33.4644 54.2628 33.6111 54.5999 33.821 54.8971C34.0308 55.1944 34.2992 55.4456 34.6098 55.6352C34.9203 55.8248 35.2664 55.9489 35.6267 55.9998C35.9849 56.0851 36.3569 56.0953 36.7193 56.0298C37.0817 55.9642 37.4266 55.8243 37.7322 55.6189C38.0378 55.4135 38.2976 55.147 38.4952 54.8362C38.6927 54.5254 38.8237 54.177 38.88 53.8131L40.88 42.6664H53.3333C54.0406 42.6664 54.7189 42.3855 55.219 41.8854C55.7191 41.3853 56 40.707 56 39.9998C56 39.2925 55.7191 38.6143 55.219 38.1142C54.7189 37.6141 54.0406 37.3331 53.3333 37.3331ZM25.8667 37.3331L27.8133 26.6664H38.1333L36.1867 37.3331H25.8667Z" />
</svg>