<?xml version="1.0" encoding="UTF-8"?>
<svg width="64" height="64" viewBox="0 0 64 64" fill="currentColor" xmlns="http://www.w3.org/2000/svg">
  <path
    d="M32 17.8195C35.1238 17.8169 38.161 18.8459 40.64 20.7465C43.1189 22.6472 44.901 25.3133 45.7093 28.3307C46.5176 31.3481 46.3069 34.5479 45.11 37.4333C43.9132 40.3187 41.797 42.7281 39.0903 44.2874V48.5416C39.0884 49.1679 38.8393 49.7681 38.3971 50.2116C37.9549 50.6551 37.3555 50.906 36.7292 50.9097H27.2708C26.6445 50.906 26.0451 50.6551 25.6029 50.2116C25.1607 49.7681 24.9116 49.1679 24.9097 48.5416V44.2874C22.203 42.7281 20.0869 40.3187 18.89 37.4333C17.6931 34.5479 17.4825 31.3481 18.2908 28.3307C19.0991 25.3133 20.8811 22.6472 23.36 20.7465C25.839 18.8459 28.8762 17.8169 32 17.8195ZM36.7292 53.2708V55.6319C36.7273 56.2594 36.4772 56.8606 36.0335 57.3043C35.5898 57.748 34.9886 57.9981 34.3611 58H29.6389C29.0114 57.9981 28.4102 57.748 27.9665 57.3043C27.5228 56.8606 27.2727 56.2594 27.2708 55.6319V53.2708H36.7292ZM53.2708 29.6389H55.6319C56.2587 29.6389 56.86 29.8875 57.3039 30.3301C57.7478 30.7726 57.9981 31.3732 58 32C57.9981 32.6268 57.7478 33.2274 57.3039 33.67C56.86 34.1125 56.2587 34.3611 55.6319 34.3611H53.2708C52.6446 34.3611 52.0441 34.1123 51.6013 33.6695C51.1585 33.2267 50.9097 32.6262 50.9097 32C50.9097 31.3738 51.1585 30.7733 51.6013 30.3305C52.0441 29.8877 52.6446 29.6389 53.2708 29.6389ZM8.36815 29.6389H10.7292C11.3554 29.6389 11.9559 29.8877 12.3987 30.3305C12.8415 30.7733 13.0903 31.3738 13.0903 32C13.0903 32.6262 12.8415 33.2267 12.3987 33.6695C11.9559 34.1123 11.3554 34.3611 10.7292 34.3611H8.36815C7.7413 34.3611 7.14003 34.1125 6.69612 33.67C6.25221 33.2274 6.00188 32.6268 6 32C6.00188 31.3732 6.25221 30.7726 6.69612 30.3301C7.14003 29.8875 7.7413 29.6389 8.36815 29.6389ZM34.3611 8.36815V10.7292C34.3611 11.3554 34.1123 11.9559 33.6695 12.3987C33.2267 12.8415 32.6262 13.0903 32 13.0903C31.3738 13.0903 30.7733 12.8415 30.3305 12.3987C29.8877 11.9559 29.6389 11.3554 29.6389 10.7292V8.36815C29.6389 7.7413 29.8875 7.14003 30.3301 6.69612C30.7726 6.25221 31.3732 6.00188 32 6C32.6268 6.00188 33.2274 6.25221 33.67 6.69612C34.1125 7.14003 34.3611 7.7413 34.3611 8.36815ZM16.9474 13.6008L18.6278 15.2882C18.8484 15.5082 19.0234 15.7696 19.1428 16.0573C19.2622 16.3451 19.3237 16.6536 19.3237 16.9651C19.3237 17.2766 19.2622 17.5851 19.1428 17.8729C19.0234 18.1606 18.8484 18.422 18.6278 18.6419C18.1831 19.0814 17.5832 19.3279 16.958 19.3279C16.3328 19.3279 15.7329 19.0814 15.2882 18.6419L13.5653 16.9616C13.1232 16.5154 12.8752 15.9128 12.8752 15.2847C12.8752 14.6566 13.1232 14.054 13.5653 13.6079C13.7858 13.3834 14.0487 13.2049 14.3388 13.0829C14.6288 12.9609 14.9402 12.8977 15.2549 12.8971C15.5695 12.8964 15.8812 12.9583 16.1717 13.0791C16.4623 13.1999 16.7259 13.3772 16.9474 13.6008ZM50.4134 13.6008C50.8572 14.046 51.1064 14.649 51.1064 15.2776C51.1064 15.9062 50.8572 16.5092 50.4134 16.9545L48.733 18.6349C48.2872 19.0748 47.6861 19.3214 47.0597 19.3214C46.4334 19.3214 45.8323 19.0748 45.3864 18.6349C45.1658 18.4149 44.9908 18.1535 44.8714 17.8658C44.752 17.578 44.6905 17.2695 44.6905 16.958C44.6905 16.6465 44.752 16.338 44.8714 16.0502C44.9908 15.7625 45.1658 15.5011 45.3864 15.2812L47.0597 13.5937C47.2815 13.372 47.5449 13.1964 47.8347 13.0767C48.1245 12.9571 48.4351 12.8959 48.7487 12.8965C49.0622 12.8972 49.3726 12.9597 49.6619 13.0806C49.9512 13.2014 50.2138 13.3782 50.4347 13.6008H50.4134Z" />
</svg>