<?xml version="1.0" encoding="UTF-8"?>
<svg width="107" height="110" viewBox="0 0 107 110" fill="none" xmlns="http://www.w3.org/2000/svg">
  <path
    d="M24.5118 82.2678C24.5089 82.8376 24.6191 83.4024 24.8361 83.9296C25.0532 84.4569 25.3728 84.9362 25.7765 85.34C26.1803 85.7437 26.6602 86.064 27.1887 86.2823C27.7172 86.5007 28.2839 86.6128 28.8561 86.6122H36.5786V77.9413H28.8561C28.2856 77.9413 27.7207 78.0532 27.1936 78.2706C26.6665 78.488 26.1876 78.8067 25.7842 79.2085C25.3808 79.6102 25.0608 80.0872 24.8425 80.6121C24.6242 81.137 24.5118 81.6996 24.5118 82.2678Z"
    fill="white" />
  <path
    d="M60.4651 97.6454C60.4651 98.7929 60.9228 99.8934 61.7375 100.705C62.5522 101.516 63.6572 101.972 64.8094 101.972C65.9615 101.972 67.0665 101.516 67.8812 100.705C68.6959 99.8934 69.1536 98.7929 69.1536 97.6454V88.7509H60.4651V97.6454Z"
    fill="white" />
  <path
    d="M79.0461 77.9413H49.6069V86.6122H79.0461C80.1735 86.5761 81.2426 86.1046 82.0273 85.2976C82.8119 84.4906 83.2507 83.4113 83.2507 82.2879C83.2507 81.1645 82.8119 80.0852 82.0273 79.2782C81.2426 78.4712 80.1735 77.9998 79.0461 77.9637V77.9413Z"
    fill="white" />
  <path
    d="M38.1825 52.6892H47.0372C43.5285 27.6743 17.0274 18.0504 15.8234 17.6299C14.7638 17.3353 13.6314 17.4522 12.6549 17.9568C11.6784 18.4613 10.9305 19.3161 10.5622 20.3485C10.1938 21.3809 10.2325 22.514 10.6703 23.5191C11.1082 24.5242 11.9126 25.3264 12.9213 25.7638C13.8871 26.1262 34.6424 33.8173 38.1825 52.6892Z"
    fill="white" />
  <path
    d="M38.7486 97.6454C38.7486 98.2135 38.861 98.7761 39.0793 99.301C39.2976 99.826 39.6176 100.303 40.021 100.705C40.4244 101.106 40.9033 101.425 41.4304 101.643C41.9574 101.86 42.5223 101.972 43.0928 101.972C43.6633 101.972 44.2282 101.86 44.7553 101.643C45.2824 101.425 45.7613 101.106 46.1647 100.705C46.5681 100.303 46.8881 99.826 47.1064 99.301C47.3247 98.7761 47.4371 98.2135 47.4371 97.6454V65.6687H38.7486V97.6454Z"
    fill="white" />
  <path
    d="M28.856 54.8458C28.2741 54.8272 27.6943 54.9252 27.1512 55.1341C26.608 55.3431 26.1126 55.6586 25.6943 56.062C25.276 56.4654 24.9434 56.9484 24.7163 57.4823C24.4892 58.0162 24.3721 58.5902 24.3721 59.1701C24.3721 59.7499 24.4892 60.3239 24.7163 60.8578C24.9434 61.3917 25.276 61.8748 25.6943 62.2781C26.1126 62.6815 26.608 62.9971 27.1512 63.206C27.6943 63.4149 28.2741 63.513 28.856 63.4943H58.2953V58.2372C58.2953 57.065 58.4211 55.9688 58.5109 54.8548H28.8605L28.856 54.8458Z"
    fill="white" />
  <path
    d="M79.0461 54.8458H71.5526C71.4087 55.9677 71.3322 57.0972 71.3235 58.2282V63.4943H79.0461C80.1735 63.4582 81.2425 62.9867 82.0272 62.1797C82.8119 61.3727 83.2506 60.2934 83.2506 59.17C83.2506 58.0466 82.8119 56.9673 82.0272 56.1603C81.2425 55.3533 80.1735 54.8819 79.0461 54.8458Z"
    fill="white" />
  <path
    d="M97.609 20.2607C97.4197 19.7256 97.1262 19.2329 96.7454 18.8109C96.3646 18.3889 95.9039 18.0459 95.3898 17.8015C94.8756 17.5571 94.3181 17.4162 93.7492 17.3867C93.1803 17.3573 92.6111 17.4399 92.0743 17.6299C90.7849 18.0773 60.4651 29.0747 60.4651 58.2372V75.7758H69.1536V58.2372C69.1536 35.2446 93.9252 26.1576 94.9764 25.7818C96.0599 25.3963 96.9456 24.5985 97.4391 23.5634C97.9327 22.5283 97.9938 21.3406 97.609 20.2607Z"
    fill="white" />
  <path
    d="M53.9511 38.5465C57.1009 38.5465 60.18 37.6163 62.799 35.8734C65.418 34.1306 67.4593 31.6535 68.6647 28.7553C69.8701 25.8571 70.1855 22.6681 69.571 19.5914C68.9564 16.5147 67.4397 13.6885 65.2124 11.4704C62.9851 9.25219 60.1474 7.74159 57.0581 7.1296C53.9688 6.5176 50.7666 6.8317 47.8566 8.03217C44.9465 9.23264 42.4592 11.2656 40.7093 13.8739C38.9593 16.4822 38.0253 19.5487 38.0253 22.6857C38.03 26.8908 39.7094 30.9223 42.6951 33.8957C45.6807 36.8692 49.7288 38.5417 53.9511 38.5465ZM53.9511 15.4778C55.3838 15.4769 56.7846 15.8993 57.9762 16.6914C59.1678 17.4836 60.0967 18.61 60.6454 19.928C61.194 21.2461 61.3378 22.6966 61.0586 24.0961C60.7793 25.4956 60.0895 26.7811 59.0764 27.79C58.0633 28.7989 56.7725 29.4859 55.3673 29.7641C53.9621 30.0422 52.5056 29.899 51.1822 29.3526C49.8587 28.8061 48.7277 27.881 47.9323 26.6943C47.1369 25.5075 46.7128 24.1125 46.7137 22.6857C46.7137 20.7736 47.4761 18.9398 48.8332 17.5874C50.1904 16.2349 52.0312 15.4745 53.9511 15.4733V15.4778Z"
    fill="#FF9700" />
</svg>