<?xml version="1.0" encoding="UTF-8"?>
<svg width="201" height="273" viewBox="0 0 201 273" fill="none" xmlns="http://www.w3.org/2000/svg">
  <path opacity="0.7" d="M100.737 272.969C129.849 272.969 153.448 267.678 153.448 261.152C153.448 254.626 129.849 249.335 100.737 249.335C71.6255 249.335 48.0259 254.626 48.0259 261.152C48.0259 267.678 71.6255 272.969 100.737 272.969Z" fill="#444444" />
  <path d="M100.134 263.61C116.307 263.61 129.418 261.827 129.418 259.628C129.418 257.428 116.307 255.646 100.134 255.646C83.9609 255.646 70.85 257.428 70.85 259.628C70.85 261.827 83.9609 263.61 100.134 263.61Z" fill="#222222" />
  <path d="M100.134 203.131C132.48 203.131 158.702 198.013 158.702 191.699C158.702 185.384 132.48 180.266 100.134 180.266C67.7878 180.266 41.5659 185.384 41.5659 191.699C41.5659 198.013 67.7878 203.131 100.134 203.131Z" stroke="#222222" stroke-width="3.94" stroke-miterlimit="10" />
  <path d="M41.5717 192.041L70.8498 259.592H129.418L158.702 192.041H41.5717Z" fill="#222222" />
  <path d="M106.664 243.651V240.697C109.552 238.547 112.609 235.191 112.609 230.653C112.609 224.366 107.496 219.634 100.72 219.634C93.9433 219.634 88.8362 224.36 88.8362 230.653C88.8362 235.208 91.8934 238.564 94.7809 240.697V243.651C94.7816 243.913 94.8334 244.172 94.9331 244.414C95.0301 244.659 95.1756 244.882 95.3607 245.069C95.544 245.256 95.762 245.404 96.0022 245.506C96.2424 245.607 96.5001 245.66 96.7604 245.66H104.685C105.21 245.656 105.712 245.443 106.084 245.069C106.268 244.881 106.413 244.658 106.512 244.414C106.612 244.172 106.664 243.913 106.664 243.651ZM102.705 239.64V241.643H98.7459V239.64C98.7459 239.311 98.6659 238.986 98.5127 238.696C98.3595 238.405 98.1379 238.157 97.8674 237.973C95.5598 236.42 92.8071 233.879 92.8071 230.623C92.8071 226.558 96.1572 223.604 100.726 223.604C105.294 223.604 108.65 226.558 108.65 230.623C108.65 233.879 105.897 236.42 103.589 237.973C103.319 238.157 103.097 238.405 102.944 238.696C102.791 238.986 102.711 239.311 102.711 239.64H102.705ZM96.7604 247.657H104.685V251.663H96.7604V247.657Z" fill="url(#paint0_linear_1311_26347)" />
  <path d="M113.183 221.01C113.576 221.013 113.962 220.897 114.29 220.678C114.618 220.459 114.874 220.147 115.026 219.781C115.178 219.415 115.219 219.011 115.143 218.622C115.067 218.232 114.878 217.874 114.601 217.593C114.323 217.312 113.969 217.121 113.583 217.043C113.197 216.965 112.797 217.005 112.434 217.157C112.07 217.31 111.76 217.567 111.542 217.898C111.324 218.228 111.208 218.616 111.209 219.013C111.209 219.542 111.417 220.049 111.787 220.423C112.157 220.798 112.659 221.009 113.183 221.01Z" fill="url(#paint1_linear_1311_26347)" />
  <path d="M174.369 102.074L196.678 75.4387L196.379 75.1906L196.461 75.1374L177.889 46.1861L177.139 46.6765L177.216 45.5894H176.934L177.028 45.3471L137.858 28.7327L100.895 7.99412L100.263 6.90106L67.1836 27.2201H66.4222L66.2348 27.1728V27.2201L29.9811 26.6943L28.5286 26.1034L28.3002 26.6943H27.5622L27.5329 28.6027L14.4722 61.0399L14.1267 60.9572L13.541 63.3206L13.1955 64.1773L13.3185 64.2245L4.33411 100.78L4.91979 100.934L18.695 134.068L18.3963 134.706L21.6937 136.372L21.9983 135.734L58.3105 128.567L58.9372 129.536L60.2491 128.674L60.3487 128.573L99.683 102.854L137.987 129.259L138.033 129.329L138.889 128.691L174.439 135.055L174.51 135.693L176.554 135.451L178.176 135.256L174.369 102.074ZM137.94 124.703L102.951 100.532L132.821 78.6706L169.133 100.638L137.94 124.703ZM38.5203 101.436L58.0352 73.6662L58.1524 73.7016L96.5379 100.496L60.7645 123.888L38.5203 101.436ZM169.93 96.7386L135.855 76.1477L173.127 51.2556L169.93 96.7386ZM99.8236 98.2157L61.0456 71.1433L100.286 53.8494L128.639 77.1108L99.8236 98.2157ZM68.8762 32.1596L96.7781 51.3796L61.0398 67.1669L68.8762 32.1596ZM130.572 73.9321L103.15 51.4269L134.882 32.9808L130.572 73.9321ZM134.426 72.6145L138.602 33.0281L172.29 47.3206L134.426 72.6145ZM102.295 47.6219L101.545 12.585L132.587 29.9912L102.295 47.6219ZM98.6112 48.1064L71.0842 29.164L97.8557 12.7209L98.6112 48.1064ZM57.2856 66.8302L32.7865 30.4402L65.368 30.907L57.2856 66.8302ZM53.912 68.4432L18.1503 61.6603L29.823 32.709L53.912 68.4432ZM16.8501 65.2053L54.4216 72.2954L34.9067 100.201L8.81457 98.1034L16.8501 65.2053ZM192.057 75.1256L173.584 97.2172L176.794 51.3206L192.057 75.1256ZM9.32411 101.885L33.7353 103.846L20.8913 129.654L9.32411 101.885ZM37.0854 105.323L56.6706 125.069L24.1067 131.569L37.0854 105.323ZM142.842 125.578L170.832 103.994L173.988 131.173L142.842 125.578Z" fill="#E5E5E5" />
  <path d="M6.55964 107.102C7.8556 107.101 9.12213 106.712 10.1991 105.985C11.2761 105.258 12.1152 104.225 12.6104 103.016C13.1055 101.808 13.2344 100.479 12.9809 99.1969C12.7274 97.9148 12.1027 96.7373 11.1859 95.8132C10.2691 94.8892 9.10135 94.2601 7.8302 94.0055C6.55905 93.7508 5.24161 93.8821 4.04441 94.3827C2.8472 94.8833 1.82398 95.7307 1.1041 96.8178C0.384225 97.9049 5.17492e-07 99.183 0 100.49C-3.43864e-07 101.359 0.169717 102.219 0.499441 103.022C0.829165 103.824 1.31244 104.554 1.92163 105.168C2.53083 105.782 3.254 106.268 4.04981 106.6C4.84563 106.932 5.69849 107.103 6.55964 107.102Z" fill="#E5E5E5" />
  <path d="M56.7466 82.7179C59.163 82.7179 61.5251 81.995 63.5342 80.6407C65.5433 79.2865 67.1092 77.3616 68.0339 75.1095C68.9586 72.8574 69.2006 70.3792 68.7292 67.9884C68.2578 65.5976 67.0942 63.4015 65.3856 61.6778C63.6769 59.9542 61.5 58.7803 59.1301 58.3048C56.7602 57.8292 54.3037 58.0733 52.0712 59.0061C49.8388 59.939 47.9307 61.5187 46.5883 63.5455C45.2458 65.5724 44.5293 67.9553 44.5293 70.3929C44.5293 73.6617 45.8165 76.7966 48.1077 79.108C50.3989 81.4194 53.5064 82.7179 56.7466 82.7179Z" fill="#E5E5E5" />
  <path d="M133.576 89.294C136.262 89.2951 138.887 88.4929 141.121 86.9887C143.354 85.4845 145.095 83.3459 146.123 80.8435C147.152 78.341 147.421 75.5871 146.898 72.93C146.375 70.2729 145.083 67.832 143.184 65.916C141.286 64 138.867 62.6951 136.233 62.1661C133.599 61.6372 130.869 61.9081 128.388 62.9445C125.907 63.9809 123.787 65.7363 122.295 67.9887C120.803 70.2411 120.006 72.8892 120.006 75.5983C120.006 79.2296 121.436 82.7122 123.981 85.2805C126.525 87.8488 129.977 89.2924 133.576 89.294Z" fill="#E5E5E5" />
  <path d="M100.679 61.099C102.619 61.0978 104.516 60.5161 106.129 59.4274C107.741 58.3387 108.998 56.792 109.739 54.9828C110.48 53.1737 110.673 51.1834 110.293 49.2637C109.913 47.344 108.977 45.5812 107.603 44.1982C106.23 42.8152 104.481 41.8741 102.577 41.4941C100.674 41.114 98.7012 41.3121 96.9092 42.0631C95.1171 42.8141 93.5862 44.0844 92.5099 45.7134C91.4336 47.3423 90.8604 49.2566 90.8627 51.2142C90.8673 53.8374 91.9036 56.3516 93.7439 58.2049C95.5843 60.0581 98.0784 61.099 100.679 61.099Z" fill="#E5E5E5" />
  <path d="M135.749 42.7297C137.79 42.7308 139.785 42.1215 141.483 40.9788C143.181 39.8361 144.504 38.2113 145.286 36.3098C146.069 34.4083 146.275 32.3155 145.878 30.296C145.482 28.2764 144.5 26.4209 143.058 24.9639C141.617 23.5068 139.779 22.5138 137.778 22.1103C135.777 21.7068 133.702 21.9109 131.815 22.6969C129.929 23.4829 128.316 24.8154 127.181 26.526C126.045 28.2366 125.438 30.2484 125.435 32.3072C125.434 33.6748 125.699 35.0294 126.217 36.2935C126.735 37.5575 127.494 38.7063 128.452 39.6742C129.41 40.6421 130.547 41.4101 131.799 41.9344C133.051 42.4586 134.394 42.7289 135.749 42.7297Z" fill="#E5E5E5" />
  <path d="M171.587 110.653C173.478 110.708 175.343 110.193 176.942 109.173C178.541 108.153 179.802 106.675 180.563 104.928C181.325 103.181 181.553 101.245 181.217 99.3666C180.882 97.4884 179.998 95.7539 178.68 94.3851C177.361 93.0163 175.668 92.0755 173.817 91.6831C171.965 91.2907 170.04 91.4645 168.287 92.1824C166.534 92.9002 165.033 94.1293 163.977 95.7125C162.921 97.2957 162.356 99.161 162.357 101.069C162.322 103.575 163.275 105.991 165.006 107.788C166.737 109.585 169.104 110.616 171.587 110.653Z" fill="#E5E5E5" />
  <path d="M16.2937 75.5981C18.9778 75.5935 21.6003 74.7863 23.8298 73.2785C26.0593 71.7708 27.7957 69.6302 28.8197 67.1272C29.8436 64.6242 30.1092 61.8712 29.5827 59.2161C29.0562 56.5609 27.7614 54.1228 25.8618 52.2098C23.9622 50.2968 21.5431 48.9947 18.9103 48.4682C16.2774 47.9416 13.5489 48.2142 11.0696 49.2515C8.59022 50.2888 6.47131 52.0442 4.98058 54.296C3.48986 56.5477 2.69422 59.1947 2.69422 61.9024C2.69344 63.7032 3.04485 65.4864 3.7283 67.1499C4.41175 68.8135 5.41382 70.3246 6.67712 71.5969C7.94041 72.8691 9.4401 73.8774 11.0903 74.564C12.7405 75.2506 14.5087 75.602 16.2937 75.5981Z" fill="#E5E5E5" />
  <path d="M99.7944 19.9586C101.751 19.9575 103.663 19.3712 105.289 18.274C106.915 17.1767 108.182 15.6177 108.929 13.7942C109.677 11.9706 109.872 9.96424 109.49 8.02884C109.108 6.09343 108.165 4.31583 106.781 2.92079C105.398 1.52575 103.635 0.575898 101.716 0.191322C99.7975 -0.193254 97.8088 0.00471752 96.0016 0.760202C94.1944 1.51569 92.6498 2.79476 91.5631 4.43573C90.4764 6.07669 89.8964 8.00585 89.8964 9.97932C89.8979 12.6265 90.9414 15.1648 92.7975 17.0361C94.6535 18.9074 97.1703 19.9586 99.7944 19.9586Z" fill="#E5E5E5" />
  <path d="M30.1626 39.7223C32.016 39.7223 33.8278 39.1679 35.3688 38.1291C36.9099 37.0904 38.111 35.6139 38.8202 33.8865C39.5295 32.1591 39.7151 30.2584 39.3535 28.4246C38.9919 26.5908 38.0994 24.9063 36.7889 23.5842C35.4783 22.2621 33.8086 21.3618 31.9908 20.997C30.173 20.6323 28.2889 20.8195 26.5766 21.535C24.8643 22.2505 23.4007 23.4622 22.371 25.0168C21.3413 26.5714 20.7917 28.3991 20.7917 30.2688C20.7917 32.7761 21.779 35.1806 23.5364 36.9535C25.2938 38.7263 27.6773 39.7223 30.1626 39.7223Z" fill="#E5E5E5" />
  <path d="M67.7811 40.4313C69.8946 40.429 71.96 39.7946 73.7162 38.6083C75.4724 37.4221 76.8406 35.7372 77.6478 33.7667C78.455 31.7962 78.665 29.6285 78.2513 27.5376C77.8375 25.4467 76.8186 23.5265 75.3233 22.0197C73.828 20.5128 71.9234 19.487 69.8503 19.0719C67.7773 18.6568 65.6287 18.8711 63.6763 19.6875C61.7239 20.504 60.0552 21.8861 58.8812 23.6591C57.7073 25.432 57.0807 27.5163 57.0807 29.6485C57.0815 31.0653 57.3588 32.468 57.897 33.7767C58.4352 35.0854 59.2236 36.2743 60.2172 37.2756C61.2108 38.2768 62.3902 39.0709 63.688 39.6123C64.9858 40.1538 66.3767 40.4321 67.7811 40.4313Z" fill="#E5E5E5" />
  <path d="M35.5802 112.343C37.3891 112.34 39.1567 111.797 40.6596 110.782C42.1625 109.766 43.3332 108.324 44.0238 106.637C44.7145 104.951 44.8939 103.095 44.5396 101.306C44.1853 99.5165 43.3131 97.8732 42.0332 96.5837C40.7533 95.2942 39.1232 94.4164 37.349 94.0612C35.5747 93.7061 33.7358 93.8895 32.0649 94.5884C30.3939 95.2873 28.9659 96.4702 27.9611 97.9876C26.9564 99.505 26.4202 101.289 26.4202 103.114C26.4202 104.327 26.6572 105.528 27.1177 106.648C27.5781 107.769 28.2531 108.787 29.1038 109.644C29.9545 110.501 30.9644 111.18 32.0757 111.644C33.187 112.107 34.3779 112.344 35.5802 112.343Z" fill="#E5E5E5" />
  <path d="M176.29 56.7504C178.099 56.748 179.867 56.2048 181.369 55.1893C182.872 54.1738 184.043 52.7316 184.734 51.045C185.424 49.3584 185.604 47.5032 185.25 45.7137C184.895 43.9243 184.023 42.2809 182.743 40.9914C181.463 39.7019 179.833 38.8241 178.059 38.469C176.285 38.1138 174.446 38.2973 172.775 38.9961C171.104 39.695 169.676 40.8779 168.671 42.3953C167.666 43.9128 167.13 45.6966 167.13 47.5214C167.13 48.7344 167.367 49.9354 167.828 51.0559C168.288 52.1764 168.963 53.1943 169.814 54.0515C170.664 54.9086 171.674 55.5882 172.786 56.0513C173.897 56.5144 175.088 56.7519 176.29 56.7504Z" fill="#E5E5E5" />
  <path d="M194.446 82.4521C195.743 82.4521 197.01 82.0641 198.088 81.3374C199.166 80.6107 200.006 79.5777 200.502 78.3693C200.998 77.1608 201.127 75.8312 200.874 74.5485C200.62 73.2658 199.996 72.0878 199.078 71.1634C198.161 70.239 196.993 69.6098 195.721 69.3553C194.45 69.1009 193.132 69.2327 191.934 69.734C190.737 70.2353 189.714 71.0836 188.994 72.1717C188.275 73.2597 187.891 74.5386 187.892 75.8464C187.892 76.7144 188.062 77.5739 188.391 78.3757C188.721 79.1775 189.204 79.9059 189.812 80.5194C190.421 81.1329 191.144 81.6193 191.939 81.9509C192.734 82.2825 193.586 82.4528 194.446 82.4521Z" fill="#E5E5E5" />
  <path d="M20.8035 143.864C22.6126 143.863 24.3808 143.321 25.8844 142.306C27.3881 141.291 28.5598 139.849 29.2513 138.163C29.9428 136.476 30.1231 134.621 29.7695 132.831C29.4158 131.041 28.5441 129.397 27.2644 128.107C25.9848 126.817 24.3547 125.939 22.5802 125.583C20.8058 125.227 18.9667 125.411 17.2954 126.109C15.6241 126.808 14.1956 127.991 13.1907 129.508C12.1857 131.026 11.6493 132.81 11.6493 134.635C11.6508 137.083 12.616 139.431 14.3326 141.161C16.0491 142.892 18.3767 143.864 20.8035 143.864Z" fill="#E5E5E5" />
  <path d="M176.29 143.864C178.099 143.862 179.867 143.318 181.369 142.303C182.872 141.287 184.043 139.845 184.734 138.159C185.424 136.472 185.604 134.617 185.25 132.827C184.895 131.038 184.023 129.395 182.743 128.105C181.463 126.816 179.833 125.938 178.059 125.583C176.285 125.227 174.446 125.411 172.775 126.11C171.104 126.809 169.676 127.992 168.671 129.509C167.666 131.026 167.13 132.81 167.13 134.635C167.13 135.848 167.367 137.049 167.828 138.17C168.288 139.29 168.963 140.308 169.814 141.165C170.664 142.022 171.674 142.702 172.786 143.165C173.897 143.628 175.088 143.866 176.29 143.864Z" fill="#E5E5E5" />
  <path d="M100.152 203.126C132.498 203.126 158.72 197.856 158.72 191.356C158.72 184.856 132.498 179.586 100.152 179.586C67.8052 179.586 41.5834 184.856 41.5834 191.356C41.5834 197.856 67.8052 203.126 100.152 203.126Z" fill="#222222" />
  <path d="M99.8586 200.886C129.455 200.886 153.448 196.522 153.448 191.137C153.448 185.753 129.455 181.389 99.8586 181.389C70.2618 181.389 46.2688 185.753 46.2688 191.137C46.2688 196.522 70.2618 200.886 99.8586 200.886Z" fill="#111111" />
  <path d="M135.761 111.433C133.798 111.427 131.867 111.932 130.153 112.898C128.44 113.865 127.002 115.26 125.979 116.95C124.955 118.639 124.381 120.567 124.31 122.546C124.239 124.525 124.675 126.489 125.576 128.248L110.565 141.554V197.483H119.034V145.406L132.048 133.861C133.622 134.417 135.298 134.619 136.958 134.454C138.618 134.288 140.223 133.758 141.658 132.902C143.094 132.045 144.328 130.882 145.271 129.495C146.215 128.107 146.847 126.528 147.123 124.869C147.396 123.209 147.307 121.509 146.86 119.888C146.414 118.267 145.622 116.764 144.54 115.485C143.458 114.205 142.111 113.179 140.595 112.479C139.078 111.779 137.428 111.422 135.761 111.433Z" fill="#E5E5E5" />
  <path d="M135.644 127.84C136.638 127.84 137.609 127.543 138.436 126.986C139.262 126.429 139.906 125.637 140.286 124.711C140.667 123.785 140.766 122.765 140.572 121.782C140.379 120.799 139.9 119.895 139.197 119.186C138.494 118.477 137.599 117.995 136.624 117.799C135.649 117.603 134.639 117.704 133.721 118.087C132.803 118.471 132.018 119.121 131.466 119.955C130.913 120.788 130.619 121.768 130.619 122.771C130.619 124.116 131.148 125.405 132.09 126.356C133.033 127.306 134.311 127.84 135.644 127.84Z" fill="#1E1E1E" />
  <path d="M114.091 99.2201C114.096 96.4809 113.344 93.7944 111.92 91.462C110.496 89.1296 108.456 87.2436 106.029 86.0155C103.602 84.7875 100.884 84.2659 98.1791 84.5094C95.4745 84.7529 92.8906 85.7518 90.7174 87.394C88.5441 89.0363 86.8674 91.2569 85.8754 93.8068C84.8834 96.3567 84.6152 99.135 85.101 101.83C85.5868 104.525 86.8074 107.03 88.6258 109.065C90.4442 111.099 92.7885 112.582 95.3958 113.347H95.2786V197.448H103.748V113.335H103.63C106.65 112.436 109.3 110.575 111.185 108.031C113.07 105.487 114.09 102.396 114.091 99.2201Z" fill="#E5E5E5" />
  <path d="M99.4253 106.547C100.815 106.547 102.174 106.131 103.33 105.352C104.486 104.573 105.387 103.465 105.918 102.17C106.45 100.874 106.59 99.4486 106.318 98.0733C106.047 96.6979 105.378 95.4346 104.395 94.443C103.412 93.4515 102.16 92.7762 100.796 92.5026C99.4331 92.2291 98.0199 92.3695 96.7357 92.9061C95.4515 93.4427 94.3538 94.3515 93.5816 95.5174C92.8093 96.6834 92.3971 98.0542 92.3971 99.4565C92.3971 101.337 93.1376 103.14 94.4556 104.47C95.7736 105.8 97.5613 106.547 99.4253 106.547Z" fill="#1E1E1E" />
  <path d="M89.1172 141.554L73.5616 127.764C74.6725 125.322 74.9056 122.567 74.2208 119.97C73.536 117.374 71.9761 115.1 69.8093 113.538C67.6424 111.977 65.004 111.226 62.3476 111.414C59.6911 111.602 57.1827 112.718 55.2535 114.57C53.3242 116.422 52.0948 118.894 51.7764 121.561C51.458 124.228 52.0707 126.924 53.509 129.184C54.9473 131.445 57.1215 133.13 59.6577 133.949C62.1939 134.768 64.9337 134.67 67.406 133.672L80.6307 145.394V197.448H89.0938V141.518L89.1172 141.554Z" fill="#E5E5E5" />
  <path d="M63.2361 127.84C64.2299 127.84 65.2015 127.543 66.0279 126.986C66.8543 126.429 67.4984 125.637 67.8787 124.711C68.259 123.785 68.3585 122.765 68.1647 121.782C67.9708 120.799 67.4922 119.895 66.7894 119.186C66.0866 118.477 65.1912 117.995 64.2164 117.799C63.2416 117.603 62.2313 117.704 61.313 118.087C60.3948 118.471 59.61 119.121 59.0578 119.955C58.5057 120.788 58.2109 121.768 58.2109 122.771C58.2109 124.116 58.7404 125.405 59.6828 126.356C60.6252 127.306 61.9033 127.84 63.2361 127.84Z" fill="#1E1E1E" />
  <defs>
    <linearGradient id="paint0_linear_1311_26347" x1="86.4349" y1="224.685" x2="115.661" y2="246.354" gradientUnits="userSpaceOnUse">
      <stop stop-color="#FBDA61" />
      <stop offset="1" stop-color="#F76B1C" />
    </linearGradient>
    <linearGradient id="paint1_linear_1311_26347" x1="1375.79" y1="349.121" x2="1401.63" y2="323.589" gradientUnits="userSpaceOnUse">
      <stop stop-color="#FBDA61" />
      <stop offset="1" stop-color="#F76B1C" />
    </linearGradient>
  </defs>
</svg>