<?xml version="1.0" encoding="UTF-8"?>
<svg width="200" height="271" fill="none" viewBox="0 0 200 271" xmlns="http://www.w3.org/2000/svg">
  <path opacity=".7"
    d="M100.236 270.962c28.967 0 52.449-5.252 52.449-11.73 0-6.478-23.482-11.73-52.449-11.73s-52.45 5.252-52.45 11.73c0 6.478 23.483 11.73 52.45 11.73z"
    fill="#444" />
  <path
    d="M99.636 261.672c16.093 0 29.138-1.77 29.138-3.953s-13.045-3.953-29.138-3.953c-16.093 0-29.138 1.77-29.138 3.953s13.045 3.953 29.138 3.953z"
    fill="#222" />
  <path
    d="M99.636 201.638c32.185 0 58.277-5.081 58.277-11.349s-26.092-11.349-58.277-11.349-58.277 5.081-58.277 11.349 26.092 11.349 58.277 11.349z"
    stroke="#222" stroke-width="3.94" stroke-miterlimit="10" />
  <path d="M41.365 190.629l29.132 67.055h58.277l29.138-67.055H41.365z" fill="#222" />
  <path
    d="M106.134 241.86v-2.933c2.873-2.134 5.915-5.466 5.915-9.97 0-6.24-5.088-10.938-11.83-10.938-6.743 0-11.825 4.692-11.825 10.938 0 4.522 3.042 7.853 5.915 9.97v2.933c.001.26.053.517.152.756.096.244.241.466.425.651a1.957 1.957 0 001.393.587h7.885a1.99 1.99 0 001.393-.587c.182-.187.327-.408.425-.651.099-.239.151-.496.152-.756zm-3.94-3.982v1.988h-3.94v-1.988a2.002 2.002 0 00-.873-1.654c-2.296-1.543-5.036-4.065-5.036-7.296 0-4.036 3.334-6.968 7.879-6.968 4.546 0 7.885 2.932 7.885 6.968 0 3.231-2.739 5.753-5.035 7.296a1.986 1.986 0 00-.874 1.654h-.006zm-5.915 7.958h7.885v3.977h-7.885v-3.977z"
    fill="url(#prefix__prefix__prefix__prefix__paint0_linear_1990_35767)" />
  <path
    d="M87.817 219.385c.392.003.775-.112 1.102-.33.326-.217.581-.527.732-.89a2.002 2.002 0 00-.423-2.172 1.971 1.971 0 00-2.156-.432c-.362.151-.67.406-.888.734a2 2 0 00.244 2.508c.368.371.868.581 1.39.582z"
    fill="url(#prefix__prefix__prefix__prefix__paint1_linear_1990_35767)" />
  <path
    d="M100.219 214.001a1.98 1.98 0 001.833-1.219 2.002 2.002 0 00-.421-2.171 1.962 1.962 0 00-2.154-.436 1.98 1.98 0 00-.889.732 1.998 1.998 0 00-.186 1.865 1.973 1.973 0 001.817 1.229z"
    fill="url(#prefix__prefix__prefix__prefix__paint2_linear_1990_35767)" />
  <path
    d="M112.62 219.385a1.98 1.98 0 001.834-1.22 1.998 1.998 0 00-.423-2.172 1.966 1.966 0 00-3.044.302 2 2 0 00.244 2.508c.368.371.867.581 1.389.582z"
    fill="url(#prefix__prefix__prefix__prefix__paint3_linear_1990_35767)" />
  <path
    d="M173.502 101.323l22.197-26.439-.297-.246.082-.053-18.48-28.738-.746.486.076-1.079h-.28l.093-.24-38.975-16.493-36.779-20.586-.629-1.085-32.915 20.17h-.757l-.187-.047v.047l-36.073-.522-1.445-.587-.228.587h-.734l-.029 1.894-12.996 32.2-.344-.083-.582 2.346-.344.85.122.047-8.94 36.287.583.152 13.707 32.891-.297.634 3.28 1.654.304-.634 36.131-7.114.624.962 1.305-.857.1-.099 39.138-25.53 38.113 26.21.047.07.851-.633 35.374 6.317.069.633 2.034-.24 1.615-.194-3.788-32.938zm-36.249 22.463l-34.814-23.993 29.721-21.7 36.132 21.805-31.039 23.888zM38.329 100.69l19.417-27.565.117.035 38.195 26.597-35.596 23.22L38.33 100.69zm130.755-4.663l-33.905-20.44 37.087-24.708-3.182 45.148zm-69.757 1.466L60.742 70.62l39.045-17.167L128 76.543l-28.672 20.95zm-30.793-65.57l27.763 19.079-35.56 15.671 7.797-34.75zm61.388 41.465l-27.285-22.34 31.574-18.31-4.289 40.65zm3.835-1.307l4.155-39.296 33.521 14.188-37.676 25.108zm-31.971-24.81l-.746-34.779 30.887 17.279-30.141 17.5zm-3.665.482L70.73 28.95l26.638-16.323.752 35.126zM57 66.339L32.623 30.216l32.42.464L57 66.339zm-3.357 1.6L18.06 61.208 29.675 32.47l23.969 35.47zm-36.878-3.213l37.385 7.038-19.418 27.7L8.77 97.382l7.995-32.656zM191.1 74.573l-18.38 21.93 3.193-45.56 15.187 23.63zM9.278 101.136l24.29 1.947-12.78 25.618-11.51-27.565zm27.623 3.413l19.488 19.601-32.402 6.451L36.9 104.549zm105.23 20.105l27.851-21.425 3.141 26.979-30.992-5.554z"
    fill="#F5F5F5" />
  <path
    d="M6.527 106.314a6.496 6.496 0 003.621-1.108 6.558 6.558 0 002.4-2.947 6.601 6.601 0 00.368-3.791 6.576 6.576 0 00-1.786-3.36 6.508 6.508 0 00-3.339-1.794 6.482 6.482 0 00-3.767.375A6.53 6.53 0 001.1 96.106a6.593 6.593 0 00.813 8.288 6.489 6.489 0 004.615 1.92zM56.464 82.11a12.1 12.1 0 006.754-2.062 12.21 12.21 0 004.477-5.49 12.313 12.313 0 00.692-7.07 12.26 12.26 0 00-3.327-6.264 12.132 12.132 0 00-6.224-3.348 12.085 12.085 0 00-7.024.696 12.174 12.174 0 00-5.456 4.506 12.29 12.29 0 00-2.048 6.797c0 3.245 1.28 6.357 3.56 8.651a12.117 12.117 0 008.596 3.584zm76.448 6.527a13.445 13.445 0 007.506-2.288 13.57 13.57 0 004.978-6.1 13.667 13.667 0 00-2.924-14.818 13.482 13.482 0 00-6.917-3.722 13.427 13.427 0 00-7.805.773 13.53 13.53 0 00-6.064 5.007 13.662 13.662 0 001.678 17.164 13.464 13.464 0 009.548 3.984zM100.178 60.65a9.719 9.719 0 005.423-1.66 9.81 9.81 0 003.592-4.412 9.88 9.88 0 00.551-5.677 9.838 9.838 0 00-2.676-5.028 9.74 9.74 0 00-5.001-2.684 9.703 9.703 0 00-5.64.565 9.775 9.775 0 00-4.377 3.623 9.868 9.868 0 001.228 12.4 9.736 9.736 0 006.9 2.873zm34.896-18.234a10.22 10.22 0 005.705-1.738 10.325 10.325 0 003.785-4.635c.778-1.888.983-3.965.588-5.97a10.354 10.354 0 00-2.805-5.293 10.249 10.249 0 00-5.255-2.832 10.205 10.205 0 00-5.932.582 10.283 10.283 0 00-4.612 3.801 10.387 10.387 0 001.265 13.052c.953.96 2.085 1.723 3.331 2.243 1.245.52 2.581.789 3.93.79zm35.659 67.423a9.406 9.406 0 005.328-1.469 9.502 9.502 0 003.604-4.213 9.574 9.574 0 00.651-5.521 9.54 9.54 0 00-2.525-4.945 9.444 9.444 0 00-4.839-2.682 9.402 9.402 0 00-5.502.495 9.472 9.472 0 00-4.289 3.505 9.566 9.566 0 00-1.612 5.317 9.42 9.42 0 002.636 6.67 9.297 9.297 0 006.548 2.843zM16.213 75.042c2.67-.004 5.28-.806 7.498-2.302a13.577 13.577 0 004.965-6.106 13.677 13.677 0 00.76-7.853 13.623 13.623 0 00-3.703-6.955 13.483 13.483 0 00-6.917-3.714 13.428 13.428 0 00-7.801.777 13.528 13.528 0 00-6.06 5.008 13.657 13.657 0 00-2.274 7.55 13.668 13.668 0 001.029 5.21 13.596 13.596 0 002.934 4.413 13.499 13.499 0 004.391 2.946 13.428 13.428 0 005.178 1.026zm83.085-55.23a9.8 9.8 0 005.467-1.672 9.89 9.89 0 003.622-4.447 9.961 9.961 0 00.558-5.723 9.92 9.92 0 00-2.695-5.07 9.826 9.826 0 00-5.04-2.71 9.784 9.784 0 00-5.686.565 9.857 9.857 0 00-4.416 3.648 9.951 9.951 0 001.228 12.508 9.817 9.817 0 006.962 2.9zM30.012 39.43c1.845 0 3.647-.55 5.18-1.581a9.37 9.37 0 003.435-4.212 9.439 9.439 0 00.53-5.421 9.402 9.402 0 00-2.551-4.805 9.306 9.306 0 00-4.774-2.568 9.269 9.269 0 00-5.388.534 9.337 9.337 0 00-4.184 3.456 9.426 9.426 0 001.16 11.849 9.294 9.294 0 006.592 2.748zm37.432.704a10.589 10.589 0 005.905-1.81 10.69 10.69 0 003.912-4.806 10.767 10.767 0 00.6-6.183 10.725 10.725 0 00-2.913-5.477 10.615 10.615 0 00-5.445-2.926 10.58 10.58 0 00-6.144.61 10.651 10.651 0 00-4.77 3.943 10.753 10.753 0 001.328 13.516 10.637 10.637 0 003.454 2.32c1.291.538 2.675.814 4.073.813zm-32.041 71.383a9.068 9.068 0 005.054-1.55 9.15 9.15 0 003.348-4.114 9.215 9.215 0 00.513-5.292 9.18 9.18 0 00-2.494-4.688 9.086 9.086 0 00-4.66-2.503 9.05 9.05 0 00-5.259.523 9.116 9.116 0 00-4.083 3.374 9.203 9.203 0 001.137 11.571 9.075 9.075 0 006.444 2.679zm140.01-55.184a9.06 9.06 0 005.054-1.55 9.151 9.151 0 003.348-4.113 9.222 9.222 0 00.513-5.293 9.187 9.187 0 00-2.494-4.687 9.09 9.09 0 00-4.661-2.504 9.05 9.05 0 00-5.258.523 9.12 9.12 0 00-4.083 3.374 9.2 9.2 0 00-.839 8.598 9.155 9.155 0 001.976 2.973 9.091 9.091 0 002.957 1.985 9.053 9.053 0 003.487.694zm18.066 25.513c1.29 0 2.551-.385 3.623-1.107a6.549 6.549 0 002.402-2.946 6.598 6.598 0 00-1.416-7.153 6.51 6.51 0 00-3.341-1.795 6.483 6.483 0 00-3.768.376 6.532 6.532 0 00-2.925 2.42 6.585 6.585 0 00-1.096 3.648 6.59 6.59 0 001.91 4.638 6.518 6.518 0 002.116 1.421 6.48 6.48 0 002.495.498zM20.7 142.806a9.055 9.055 0 005.056-1.547 9.146 9.146 0 003.35-4.112 9.216 9.216 0 00.515-5.293 9.182 9.182 0 00-2.492-4.689 9.088 9.088 0 00-4.661-2.505 9.045 9.045 0 00-5.259.522 9.12 9.12 0 00-4.084 3.374 9.195 9.195 0 001.136 11.567 9.08 9.08 0 006.439 2.683zm154.713 0a9.057 9.057 0 005.054-1.549 9.153 9.153 0 003.348-4.114 9.221 9.221 0 00.513-5.292 9.185 9.185 0 00-2.494-4.688 9.053 9.053 0 00-9.919-1.98 9.11 9.11 0 00-4.083 3.374 9.2 9.2 0 00-1.533 5.088 9.202 9.202 0 002.67 6.482 9.077 9.077 0 006.444 2.679z"
    fill="#F5F5F5" />
  <path
    d="M99.653 201.632c32.186 0 58.277-5.231 58.277-11.683s-26.091-11.683-58.277-11.683c-32.185 0-58.277 5.231-58.277 11.683s26.092 11.683 58.277 11.683z"
    fill="#222" />
  <path
    d="M99.362 199.409c29.449 0 53.323-4.332 53.323-9.677s-23.874-9.677-53.323-9.677c-29.45 0-53.323 4.332-53.323 9.677s23.873 9.677 53.323 9.677z"
    fill="#111" />
  <path
    d="M135.086 110.613a11.32 11.32 0 00-5.58 1.455 11.393 11.393 0 00-4.154 4.022 11.495 11.495 0 00-1.66 5.555 11.492 11.492 0 001.259 5.66l-14.936 13.208v55.518h8.427v-51.694l12.949-11.46a11.34 11.34 0 009.563-.953 11.427 11.427 0 003.595-3.381 11.508 11.508 0 001.842-4.593 11.525 11.525 0 00-.261-4.943 11.49 11.49 0 00-2.309-4.372 11.403 11.403 0 00-3.926-2.983 11.33 11.33 0 00-4.809-1.039z"
    fill="#F5F5F5" />
  <path
    d="M134.969 126.9c.989 0 1.956-.295 2.778-.848a5.02 5.02 0 001.841-2.258 5.055 5.055 0 00-1.083-5.484 4.992 4.992 0 00-2.561-1.377 4.972 4.972 0 00-2.889.286 5.013 5.013 0 00-2.244 1.854 5.055 5.055 0 00.622 6.354 4.988 4.988 0 003.536 1.473z"
    fill="#1E1E1E" />
  <path
    d="M113.523 98.49a14.71 14.71 0 00-2.159-7.7 14.577 14.577 0 00-5.862-5.407 14.461 14.461 0 00-15.236 1.368 14.624 14.624 0 00-4.818 6.366 14.72 14.72 0 00-.77 7.964 14.671 14.671 0 003.507 7.182 14.533 14.533 0 006.736 4.251h-.116v83.482h8.427v-83.494h-.117a14.524 14.524 0 007.517-5.265 14.68 14.68 0 002.891-8.746z"
    fill="#F5F5F5" />
  <path
    d="M98.93 105.763a6.964 6.964 0 003.886-1.186 7.025 7.025 0 002.575-3.159 7.071 7.071 0 00-1.515-7.67 6.982 6.982 0 00-3.581-1.926 6.952 6.952 0 00-4.04.4 7.004 7.004 0 00-3.14 2.593 7.07 7.07 0 00.87 8.887 6.97 6.97 0 004.946 2.061z"
    fill="#1E1E1E" />
  <path
    d="M88.674 140.513l-15.478-13.689a11.54 11.54 0 00.656-7.736 11.471 11.471 0 00-4.39-6.384 11.346 11.346 0 00-14.483 1.023 11.498 11.498 0 00-3.46 6.94 11.533 11.533 0 001.724 7.568 11.409 11.409 0 006.118 4.729 11.33 11.33 0 007.71-.275l13.159 11.636v51.671h8.42v-55.518l.024.035z"
    fill="#F5F5F5" />
  <path
    d="M62.922 126.9c.988 0 1.955-.295 2.777-.848a5.022 5.022 0 001.842-2.258 5.06 5.06 0 00-1.084-5.484 4.987 4.987 0 00-2.56-1.377 4.97 4.97 0 00-2.889.286 5.006 5.006 0 00-2.244 1.854 5.052 5.052 0 00.622 6.354 4.986 4.986 0 003.535 1.473z"
    fill="#1E1E1E" />
  <defs>
    <linearGradient id="prefix__prefix__prefix__prefix__paint0_linear_1990_35767" x1="86.005" y1="223.033" x2="115.036"
      y2="244.609" gradientUnits="userSpaceOnUse">
      <stop stop-color="#FBDA61" />
      <stop offset="1" stop-color="#F76B1C" />
    </linearGradient>
    <linearGradient id="prefix__prefix__prefix__prefix__paint1_linear_1990_35767" x1="1175.98" y1="346.552" x2="1201.62"
      y2="321.147" gradientUnits="userSpaceOnUse">
      <stop stop-color="#FBDA61" />
      <stop offset="1" stop-color="#F76B1C" />
    </linearGradient>
    <linearGradient id="prefix__prefix__prefix__prefix__paint2_linear_1990_35767" x1="1272.46" y1="377.713" x2="1298.11"
      y2="352.308" gradientUnits="userSpaceOnUse">
      <stop stop-color="#FBDA61" />
      <stop offset="1" stop-color="#F76B1C" />
    </linearGradient>
    <linearGradient id="prefix__prefix__prefix__prefix__paint3_linear_1990_35767" x1="1368.95" y1="346.552" x2="1394.59"
      y2="321.147" gradientUnits="userSpaceOnUse">
      <stop stop-color="#FBDA61" />
      <stop offset="1" stop-color="#F76B1C" />
    </linearGradient>
  </defs>
</svg>