<?xml version="1.0" encoding="UTF-8"?>
<svg viewBox="0 0 64 64" fill="currentColor" xmlns="http://www.w3.org/2000/svg">
  <path fill-rule="evenodd" clip-rule="evenodd"
    d="M32 8C18.7452 8 8 18.7452 8 32C8 45.2548 18.7452 56 32 56C45.2548 56 56 45.2548 56 32C56 18.7452 45.2548 8 32 8ZM26.7233 19.2773C28.0886 19.2152 28.5249 19.2 32.0012 19.2H31.9972C35.4746 19.2 35.9092 19.2152 37.2746 19.2773C38.6373 19.3397 39.5679 19.5555 40.384 19.872C41.2266 20.1987 41.9386 20.636 42.6506 21.348C43.3627 22.0595 43.8 22.7736 44.128 23.6155C44.4427 24.4294 44.6587 25.3595 44.7227 26.7222C44.784 28.0876 44.8 28.5238 44.8 32.0001C44.8 35.4764 44.784 35.9116 44.7227 37.277C44.6587 38.6391 44.4427 39.5695 44.128 40.3837C43.8 41.2253 43.3627 41.9394 42.6506 42.6509C41.9394 43.3629 41.2264 43.8013 40.3848 44.1283C39.5703 44.4448 38.6391 44.6605 37.2765 44.7229C35.9111 44.7851 35.4762 44.8003 31.9996 44.8003C28.5236 44.8003 28.0876 44.7851 26.7222 44.7229C25.3598 44.6605 24.4294 44.4448 23.615 44.1283C22.7736 43.8013 22.0595 43.3629 21.3483 42.6509C20.6365 41.9394 20.1992 41.2253 19.872 40.3834C19.5557 39.5695 19.34 38.6394 19.2773 37.2767C19.2155 35.9114 19.2 35.4764 19.2 32.0001C19.2 28.5238 19.216 28.0873 19.2771 26.7219C19.3384 25.3598 19.5544 24.4294 19.8717 23.6152C20.1997 22.7736 20.6371 22.0595 21.3491 21.348C22.0606 20.6363 22.7747 20.1989 23.6166 19.872C24.4305 19.5555 25.3606 19.3397 26.7233 19.2773Z" />
  <path fill-rule="evenodd" clip-rule="evenodd"
    d="M30.8529 21.5067C31.0759 21.5064 31.3157 21.5065 31.5746 21.5066L32.0012 21.5067C35.4188 21.5067 35.8239 21.519 37.1735 21.5803C38.4215 21.6374 39.0989 21.8459 39.5501 22.0211C40.1474 22.2531 40.5733 22.5305 41.021 22.9785C41.469 23.4265 41.7464 23.8532 41.9789 24.4505C42.1541 24.9012 42.3629 25.5785 42.4197 26.8265C42.481 28.1759 42.4944 28.5812 42.4944 31.9972C42.4944 35.4133 42.481 35.8186 42.4197 37.168C42.3626 38.416 42.1541 39.0933 41.9789 39.544C41.7469 40.1413 41.469 40.5667 41.021 41.0144C40.573 41.4624 40.1477 41.7398 39.5501 41.9718C39.0994 42.1478 38.4215 42.3558 37.1735 42.4128C35.8242 42.4742 35.4188 42.4875 32.0012 42.4875C28.5833 42.4875 28.1782 42.4742 26.8289 42.4128C25.5809 42.3552 24.9035 42.1467 24.452 41.9715C23.8547 41.7395 23.428 41.4621 22.98 41.0141C22.532 40.5661 22.2547 40.1405 22.0222 39.5429C21.847 39.0923 21.6382 38.4149 21.5814 37.1669C21.52 35.8176 21.5078 35.4122 21.5078 31.994C21.5078 28.5759 21.52 28.1727 21.5814 26.8233C21.6384 25.5753 21.847 24.898 22.0222 24.4468C22.2542 23.8494 22.532 23.4228 22.98 22.9748C23.428 22.5268 23.8547 22.2494 24.452 22.0169C24.9033 21.8409 25.5809 21.6329 26.8289 21.5755C28.0097 21.5222 28.4673 21.5062 30.8529 21.5035V21.5067ZM38.8338 23.6321C37.9858 23.6321 37.2978 24.3193 37.2978 25.1676C37.2978 26.0156 37.9858 26.7036 38.8338 26.7036C39.6818 26.7036 40.3698 26.0156 40.3698 25.1676C40.3698 24.3196 39.6818 23.6316 38.8338 23.6316V23.6321ZM25.4278 32.0002C25.4278 28.3701 28.3709 25.4269 32.0009 25.4268C35.6311 25.4268 38.5735 28.37 38.5735 32.0002C38.5735 35.6304 35.6314 38.5723 32.0012 38.5723C28.371 38.5723 25.4278 35.6304 25.4278 32.0002Z" />
  <path
    d="M32.0012 27.7334C34.3575 27.7334 36.2679 29.6436 36.2679 32.0001C36.2679 34.3564 34.3575 36.2668 32.0012 36.2668C29.6447 36.2668 27.7345 34.3564 27.7345 32.0001C27.7345 29.6436 29.6447 27.7334 32.0012 27.7334Z" />
</svg>