<?xml version="1.0" encoding="UTF-8"?>
<svg viewBox="0 0 64 64" fill="currentColor" xmlns="http://www.w3.org/2000/svg">
  <path
    d="M31.9936 23.9963C27.5867 23.9963 23.9904 27.5926 23.9904 31.9995C23.9904 36.4064 27.5867 40.0028 31.9936 40.0028C36.4005 40.0028 39.9969 36.4064 39.9969 31.9995C39.9969 27.5926 36.4005 23.9963 31.9936 23.9963ZM55.9974 31.9995C55.9974 28.6854 56.0274 25.4012 55.8413 22.093C55.6552 18.2505 54.7786 14.8403 51.9687 12.0304C49.1529 9.21456 45.7486 8.34399 41.9061 8.15787C38.5919 7.97175 35.3078 8.00177 31.9996 8.00177C28.6854 8.00177 25.4013 7.97175 22.0931 8.15787C18.2506 8.34399 14.8403 9.22057 12.0305 12.0304C9.21464 14.8463 8.34407 18.2505 8.15795 22.093C7.97183 25.4072 8.00185 28.6914 8.00185 31.9995C8.00185 35.3077 7.97183 38.5979 8.15795 41.906C8.34407 45.7486 9.22065 49.1588 12.0305 51.9686C14.8463 54.7845 18.2506 55.6551 22.0931 55.8412C25.4073 56.0273 28.6914 55.9973 31.9996 55.9973C35.3138 55.9973 38.5979 56.0273 41.9061 55.8412C45.7486 55.6551 49.1589 54.7785 51.9687 51.9686C54.7846 49.1528 55.6552 45.7486 55.8413 41.906C56.0334 38.5979 55.9974 35.3137 55.9974 31.9995ZM31.9936 44.3136C25.1791 44.3136 19.6795 38.814 19.6795 31.9995C19.6795 25.1851 25.1791 19.6854 31.9936 19.6854C38.8081 19.6854 44.3077 25.1851 44.3077 31.9995C44.3077 38.814 38.8081 44.3136 31.9936 44.3136ZM44.812 22.057C43.221 22.057 41.9361 20.7722 41.9361 19.1811C41.9361 17.5901 43.221 16.3052 44.812 16.3052C46.4031 16.3052 47.6879 17.5901 47.6879 19.1811C47.6884 19.5589 47.6143 19.9331 47.47 20.2822C47.3256 20.6314 47.1138 20.9486 46.8467 21.2157C46.5795 21.4829 46.2623 21.6947 45.9132 21.8391C45.564 21.9834 45.1898 22.0575 44.812 22.057Z" />
</svg>