<?xml version="1.0" encoding="UTF-8"?>
<svg width="64" height="64" viewBox="0 0 64 64" fill="currentColor" xmlns="http://www.w3.org/2000/svg">
  <g clip-path="url(#clip0_1816_29608)">
    <path
      d="M2.48669e-06 56.8889L3.10837e-07 7.11111C1.39876e-07 3.2 3.2 -1.39876e-07 7.11111 -3.10837e-07L56.8889 -2.48669e-06C60.8 -2.65765e-06 64 3.2 64 7.11111L64 56.8889C64 60.8 60.8 64 56.8889 64L7.11111 64C3.2 64 2.65765e-06 60.8 2.48669e-06 56.8889ZM56.8889 56.8889L56.8889 7.11111L7.11111 7.11111L7.11111 56.8889L56.8889 56.8889ZM24.8889 14.2222L24.8889 21.3333L49.7778 21.3333L49.7778 14.2222L24.8889 14.2222ZM14.2222 28.4444L14.2222 35.5556L49.7778 35.5556L49.7778 28.4444L14.2222 28.4444ZM35.5556 42.6667L35.5556 49.7778L49.7778 49.7778L49.7778 42.6667L35.5556 42.6667Z" />
  </g>
  <defs>
    <clipPath id="clip0_1816_29608">
      <rect width="64" height="64" transform="matrix(4.37114e-08 1 1 -4.37114e-08 0 0)" />
    </clipPath>
  </defs>
</svg>