<?xml version="1.0" encoding="UTF-8"?>
<svg width="64" height="64" viewBox="0 0 64 64" fill="currentColor" xmlns="http://www.w3.org/2000/svg">
  <path fill-rule="evenodd" clip-rule="evenodd"
    d="M52 9.99996H12C10.8954 9.99996 10 10.8954 10 12V52C10 53.1045 10.8954 54 12 54H52C53.1046 54 54 53.1045 54 52V12C54 10.8954 53.1046 9.99996 52 9.99996ZM56 12C56 9.79082 54.2091 7.99996 52 7.99996H12C9.79086 7.99996 8 9.79082 8 12V52C8 54.2091 9.79086 56 12 56H52C54.2091 56 56 54.2091 56 52V12ZM46.0485 41.6784C46.2736 42.0213 46.4 42.4864 46.4 42.9714C46.4 43.4564 46.2736 43.9215 46.0485 44.2644C45.8235 44.6073 45.5183 44.8 45.2 44.8H38C37.6817 44.8 37.3765 44.6073 37.1515 44.2644C36.9264 43.9215 36.8 43.4564 36.8 42.9714C36.8 42.4864 36.9264 42.0213 37.1515 41.6784C37.3765 41.3355 37.6817 41.1428 38 41.1428H45.2C45.5183 41.1428 45.8235 41.3355 46.0485 41.6784ZM46.0485 30.707C46.2736 31.0499 46.4 31.515 46.4 32C46.4 32.4849 46.2736 32.95 46.0485 33.293C45.8235 33.6359 45.5183 33.8285 45.2 33.8285H28.4C28.0818 33.8285 27.7765 33.6359 27.5515 33.293C27.3264 32.95 27.2 32.4849 27.2 32C27.2 31.515 27.3264 31.0499 27.5515 30.707C27.7765 30.3641 28.0818 30.1714 28.4 30.1714H45.2C45.5183 30.1714 45.8235 30.3641 46.0485 30.707ZM46.0485 19.7355C46.2736 20.0785 46.4 20.5436 46.4 21.0285C46.4 21.5135 46.2736 21.9786 46.0485 22.3215C45.8235 22.6645 45.5183 22.8571 45.2 22.8571H18.8C18.4818 22.8571 18.1765 22.6645 17.9515 22.3215C17.7264 21.9786 17.6 21.5135 17.6 21.0285C17.6 20.5436 17.7264 20.0785 17.9515 19.7355C18.1765 19.3926 18.4818 19.2 18.8 19.2H45.2C45.5183 19.2 45.8235 19.3926 46.0485 19.7355Z" />
</svg>