<?xml version="1.0" encoding="UTF-8"?>

<svg width="64" height="64" viewBox="0 0 64 64" fill="currentColor" xmlns="http://www.w3.org/2000/svg">
  <path
    d="M46.0485 41.6784C46.2736 42.0214 46.4 42.4865 46.4 42.9714C46.4 43.4564 46.2736 43.9215 46.0485 44.2644C45.8235 44.6073 45.5183 44.8 45.2 44.8H38C37.6817 44.8 37.3765 44.6073 37.1515 44.2644C36.9264 43.9215 36.8 43.4564 36.8 42.9714C36.8 42.4865 36.9264 42.0214 37.1515 41.6784C37.3765 41.3355 37.6817 41.1429 38 41.1429H45.2C45.5183 41.1429 45.8235 41.3355 46.0485 41.6784Z" />
  <path
    d="M46.0485 30.707C46.2736 31.0499 46.4 31.515 46.4 32C46.4 32.485 46.2736 32.9501 46.0485 33.293C45.8235 33.6359 45.5183 33.8286 45.2 33.8286H28.4C28.0817 33.8286 27.7765 33.6359 27.5515 33.293C27.3264 32.9501 27.2 32.485 27.2 32C27.2 31.515 27.3264 31.0499 27.5515 30.707C27.7765 30.3641 28.0817 30.1714 28.4 30.1714H45.2C45.5183 30.1714 45.8235 30.3641 46.0485 30.707Z" />
  <path
    d="M46.0485 19.7356C46.2736 20.0785 46.4 20.5436 46.4 21.0286C46.4 21.5135 46.2736 21.9786 46.0485 22.3216C45.8235 22.6645 45.5183 22.8571 45.2 22.8571H18.8C18.4817 22.8571 18.1765 22.6645 17.9515 22.3216C17.7264 21.9786 17.6 21.5135 17.6 21.0286C17.6 20.5436 17.7264 20.0785 17.9515 19.7356C18.1765 19.3927 18.4817 19.2 18.8 19.2H45.2C45.5183 19.2 45.8235 19.3927 46.0485 19.7356Z" />
  <path fill-rule="evenodd" clip-rule="evenodd"
    d="M56 15.2C56 11.2235 52.7765 8 48.8 8H15.2C11.2235 8 8 11.2235 8 15.2V48.8C8 52.7765 11.2235 56 15.2 56H48.8C52.7765 56 56 52.7765 56 48.8V15.2ZM48.8 11.6H15.2C13.2118 11.6 11.6 13.2118 11.6 15.2V48.8C11.6 50.7882 13.2118 52.4 15.2 52.4H48.8C50.7882 52.4 52.4 50.7882 52.4 48.8V15.2C52.4 13.2118 50.7882 11.6 48.8 11.6Z" />
</svg>