<?xml version="1.0" encoding="UTF-8"?>
<svg width="754" height="492" viewBox="0 0 754 492" fill="none" xmlns="http://www.w3.org/2000/svg">
  <path
    d="M37.9568 321.193L134.018 235.782C164.811 208.403 206.723 197.173 247.079 205.487L372.976 231.424L498.874 257.361C539.23 265.676 581.142 254.445 611.935 227.067L707.996 141.656"
    stroke-width="2" stroke-linecap="round" stroke-linejoin="round" />
  <path
    d="M30.2366 292.381L126.298 206.971C157.09 179.592 199.003 168.362 239.359 176.676L365.256 202.613L491.153 228.55C531.51 236.864 573.422 225.634 604.214 198.256L700.276 112.845"
    stroke-width="2" stroke-linecap="round" stroke-linejoin="round" />
  <path
    d="M22.5166 263.57L118.578 178.159C149.371 150.781 191.283 139.55 231.639 147.864L357.536 173.801L483.433 199.739C523.79 208.053 565.702 196.822 596.494 169.444L692.556 84.0332"
    stroke-width="2" stroke-linecap="round" stroke-linejoin="round" />
  <path
    d="M45.6768 350.004L141.738 264.593C172.531 237.215 214.443 225.984 254.799 234.299L380.696 260.236L506.594 286.173C546.95 294.487 588.862 283.257 619.655 255.878L715.716 170.467"
    stroke-width="2" stroke-linecap="round" stroke-linejoin="round" />
  <path
    d="M53.3965 378.815L149.458 293.404C180.25 266.026 222.163 254.796 262.519 263.11L388.416 289.047L514.313 314.984C554.669 323.298 596.582 312.068 627.374 284.689L723.436 199.279"
    stroke-width="2" stroke-linecap="round" stroke-linejoin="round" />
  <path
    d="M61.1167 407.627L157.178 322.216C187.971 294.838 229.883 283.607 270.239 291.921L396.136 317.858L522.033 343.796C562.39 352.11 604.302 340.879 635.095 313.501L731.156 228.09"
    stroke-width="2" stroke-linecap="round" stroke-linejoin="round" />
</svg>