<?xml version="1.0" encoding="UTF-8"?>
<svg width="64" height="64" viewBox="0 0 64 64" fill="currentColor" xmlns="http://www.w3.org/2000/svg">
  <path fill-rule="evenodd" clip-rule="evenodd"
    d="M54.8047 54.2023C54.8235 53.3317 54.6665 52.4662 54.3431 51.6576C54.0196 50.849 53.5364 50.114 52.9223 49.4965C52.2956 48.856 51.5334 48.364 50.6917 48.0565C49.8777 47.744 49.0131 47.5845 48.1411 47.5859H47.4259V53.3929C47.4197 53.5373 47.3731 53.677 47.2914 53.7962C47.2097 53.9154 47.0963 54.0093 46.9639 54.0671C46.8315 54.125 46.6855 54.1445 46.5425 54.1235C46.3996 54.1025 46.2654 54.0418 46.1553 53.9482L37.5529 45.9859C37.4776 45.9106 37.3929 45.8353 37.3929 45.7506C37.3929 45.6659 37.3176 45.5906 37.3176 45.4306C37.3073 45.3186 37.3337 45.2062 37.3929 45.1106C37.4776 45.0353 37.4776 44.96 37.5529 44.8753L46.1176 36.9224C46.2259 36.8233 46.3662 36.7666 46.5129 36.7624C46.6729 36.7624 46.8329 36.7624 46.9082 36.8471C47.0289 36.9043 47.1376 36.9842 47.2282 37.0824C47.3129 37.2424 47.3882 37.3177 47.3882 37.4777V43.2094H48.1035C49.5756 43.1894 51.0371 43.461 52.4037 44.0086C53.7703 44.5562 55.0149 45.369 56.0659 46.4C57.1191 47.4476 57.9568 48.6914 58.5317 50.0612C59.1104 51.4216 59.4113 52.884 59.4164 54.3623V57.4118C59.408 58.003 59.1799 58.57 58.7764 59.0023C58.5676 59.2099 58.3192 59.3736 58.046 59.4835C57.7728 59.5934 57.4803 59.6474 57.1858 59.6423C56.8916 59.6488 56.5991 59.5955 56.326 59.4855C56.053 59.3756 55.8051 59.2114 55.5975 59.0028C55.3898 58.7943 55.2266 58.5457 55.1178 58.2722C55.0091 57.9987 54.957 57.706 54.9647 57.4118V54.2023H54.8047Z" />
  <path
    d="M49.3835 8.18824C46.9448 5.75309 43.6393 4.38535 40.193 4.38535C36.7466 4.38535 33.4411 5.75309 31.0024 8.18824L26.0518 13.1765C25.8665 13.3626 25.7194 13.5833 25.6188 13.8259C25.4185 14.3176 25.4185 14.8683 25.6188 15.36C25.7194 15.6026 25.8665 15.8232 26.0518 16.0094C26.2404 16.1917 26.4604 16.3384 26.7012 16.4424C26.9439 16.5391 27.2023 16.5902 27.4635 16.5929C27.7278 16.5903 27.9894 16.5392 28.2353 16.4424C28.4732 16.3381 28.6901 16.1914 28.8753 16.0094L33.8259 11.0588C35.5371 9.51919 37.7734 8.69397 40.0745 8.75296C42.3757 8.81194 44.5667 9.75065 46.1968 11.3759C47.827 13.0012 48.7721 15.1895 48.838 17.4904C48.9038 19.7914 48.0852 22.0301 46.5506 23.7459L39.5294 30.8141C37.8396 32.4969 35.5519 33.4418 33.1671 33.4418C30.7823 33.4418 28.4946 32.4969 26.8047 30.8141C26.4303 30.4397 25.9225 30.2293 25.393 30.2293C24.8634 30.2293 24.3556 30.4397 23.9812 30.8141C23.6068 31.1885 23.3964 31.6964 23.3964 32.2259C23.3964 32.7554 23.6068 33.2632 23.9812 33.6377C26.4199 36.0728 29.7254 37.4405 33.1718 37.4405C36.6181 37.4405 39.9236 36.0728 42.3624 33.6377L49.4306 26.5694C51.8658 24.1307 53.2335 20.8252 53.2335 17.3788C53.2335 13.9325 51.8658 10.627 49.4306 8.18824H49.3835Z" />
  <path
    d="M28.8753 41.4118L23.9341 46.3529C23.0993 47.1881 22.1078 47.8502 21.0165 48.3012C19.9256 48.7579 18.7544 48.9915 17.5718 48.9882C16.3876 48.9952 15.2138 48.7681 14.1177 48.32C13.0278 47.8621 12.0369 47.1973 11.2 46.3624C10.3627 45.5293 9.70036 44.5373 9.25177 43.4447C8.57142 41.8004 8.39337 39.9914 8.7401 38.246C9.08684 36.5006 9.94281 34.897 11.2 33.6377L18.2682 26.5694C19.9581 24.8866 22.2458 23.9418 24.6306 23.9418C27.0154 23.9418 29.3031 24.8866 30.993 26.5694C31.1768 26.7575 31.398 26.905 31.6424 27.0024C31.883 27.1067 32.1424 27.1611 32.4047 27.1624C32.6672 27.1628 32.9269 27.1083 33.1671 27.0024C33.4101 26.9025 33.6309 26.7554 33.8167 26.5697C34.0025 26.3839 34.1496 26.163 34.2494 25.92C34.3558 25.6799 34.4107 25.4202 34.4107 25.1577C34.4107 24.8951 34.3558 24.6354 34.2494 24.3953C34.1521 24.151 34.0046 23.9297 33.8165 23.7459C31.3777 21.3107 28.0723 19.943 24.6259 19.943C21.1795 19.943 17.874 21.3107 15.4353 23.7459L8.37648 30.8141C5.96087 33.2562 4.61015 36.5551 4.61949 39.9901C4.62884 43.425 5.9975 46.7165 8.42637 49.1454C10.8552 51.5743 14.1468 52.9429 17.5817 52.9523C21.0166 52.9616 24.3156 51.6109 26.7577 49.1953L31.7082 44.2353C31.8935 44.0498 32.0403 43.8297 32.1405 43.5875C32.2406 43.3452 32.292 43.0856 32.2918 42.8235C32.2936 42.5612 32.2429 42.3011 32.1427 42.0587C32.0424 41.8162 31.8947 41.5963 31.7082 41.4118C31.5236 41.2251 31.3037 41.0769 31.0614 40.9758C30.819 40.8746 30.5591 40.8225 30.2965 40.8225C30.0339 40.8225 29.7739 40.8746 29.5316 40.9758C29.2893 41.0769 29.0694 41.2251 28.8847 41.4118H28.8753Z" />
</svg>