<?xml version="1.0" encoding="UTF-8"?>
<svg width="64" height="64" viewBox="0 0 64 64" fill="currentColor" xmlns="http://www.w3.org/2000/svg">
  <path fill-rule="evenodd" clip-rule="evenodd"
    d="M41.7506 54.2024V57.4118C41.7546 57.7061 41.7001 57.9983 41.5903 58.2713C41.4804 58.5444 41.3174 58.7929 41.1106 59.0024C40.9017 59.21 40.6534 59.3736 40.3801 59.4835C40.1069 59.5934 39.8145 59.6475 39.52 59.6424C39.2241 59.6477 38.9302 59.5938 38.6554 59.4839C38.3807 59.3739 38.1306 59.2102 37.92 59.0024C37.5192 58.5691 37.2944 58.002 37.2894 57.4118V54.3624C37.2893 52.8858 37.5824 51.4239 38.1517 50.0615C38.721 48.699 39.5552 47.4632 40.6058 46.4257C41.6565 45.3882 42.9027 44.5696 44.2721 44.0175C45.6416 43.4654 47.1071 43.1907 48.5835 43.2094H49.2988V37.4777C49.2988 37.3177 49.3835 37.2424 49.4588 37.0824C49.5514 36.9864 49.6596 36.9068 49.7788 36.8471C49.8541 36.7624 50.0141 36.7624 50.1741 36.7624C50.3233 36.7683 50.466 36.8247 50.5788 36.9224L59.1718 44.8847C59.2565 44.9694 59.2565 45.0447 59.3318 45.12C59.3978 45.2129 59.4279 45.3266 59.4165 45.44C59.4165 45.6 59.4165 45.6847 59.3318 45.76C59.2471 45.8353 59.2565 45.92 59.1718 45.9953L50.5788 53.9577C50.4677 54.0503 50.333 54.1102 50.1898 54.1308C50.0467 54.1514 49.9006 54.1318 49.7678 54.0742C49.6351 54.0166 49.521 53.9233 49.4382 53.8047C49.3554 53.6861 49.3071 53.5468 49.2988 53.4024V47.5953H48.5835C47.7116 47.5939 46.847 47.7535 46.033 48.0659C45.1913 48.3734 44.4291 48.8655 43.8024 49.5059C43.1883 50.1234 42.7051 50.8584 42.3816 51.667C42.0582 52.4756 41.9012 53.3411 41.92 54.2118L41.7506 54.2024Z" />
  <path
    d="M49.3835 8.18824C46.9448 5.75309 43.6393 4.38535 40.193 4.38535C36.7466 4.38535 33.4411 5.75309 31.0024 8.18824L26.0518 13.1765C25.8665 13.3626 25.7194 13.5833 25.6188 13.8259C25.4185 14.3176 25.4185 14.8683 25.6188 15.36C25.7194 15.6026 25.8665 15.8232 26.0518 16.0094C26.2404 16.1917 26.4604 16.3384 26.7012 16.4424C26.9439 16.5391 27.2023 16.5902 27.4635 16.5929C27.7278 16.5903 27.9894 16.5392 28.2353 16.4424C28.4732 16.3381 28.6901 16.1914 28.8753 16.0094L33.8259 11.0588C35.5371 9.51919 37.7734 8.69397 40.0745 8.75296C42.3757 8.81194 44.5667 9.75065 46.1968 11.3759C47.827 13.0012 48.7721 15.1895 48.838 17.4904C48.9038 19.7914 48.0852 22.0301 46.5506 23.7459L39.5294 30.8141C37.8396 32.4969 35.5519 33.4418 33.1671 33.4418C30.7823 33.4418 28.4946 32.4969 26.8047 30.8141C26.4303 30.4397 25.9225 30.2293 25.393 30.2293C24.8634 30.2293 24.3556 30.4397 23.9812 30.8141C23.6068 31.1885 23.3964 31.6964 23.3964 32.2259C23.3964 32.7554 23.6068 33.2632 23.9812 33.6377C26.4199 36.0728 29.7254 37.4405 33.1718 37.4405C36.6181 37.4405 39.9236 36.0728 42.3624 33.6377L49.4306 26.5694C51.8658 24.1307 53.2335 20.8252 53.2335 17.3788C53.2335 13.9325 51.8658 10.627 49.4306 8.18824H49.3835Z" />
  <path
    d="M28.8753 41.4118L23.9341 46.3529C23.0993 47.1881 22.1078 47.8502 21.0165 48.3012C19.9256 48.7579 18.7544 48.9915 17.5718 48.9882C16.3876 48.9952 15.2138 48.7681 14.1177 48.32C13.0278 47.8621 12.0369 47.1973 11.2 46.3624C10.3627 45.5293 9.70036 44.5373 9.25177 43.4447C8.57142 41.8004 8.39337 39.9914 8.7401 38.246C9.08684 36.5006 9.94281 34.897 11.2 33.6377L18.2682 26.5694C19.9581 24.8866 22.2458 23.9418 24.6306 23.9418C27.0154 23.9418 29.3031 24.8866 30.993 26.5694C31.1768 26.7575 31.398 26.905 31.6424 27.0024C31.883 27.1067 32.1424 27.1611 32.4047 27.1624C32.6672 27.1628 32.9269 27.1083 33.1671 27.0024C33.4101 26.9025 33.6309 26.7554 33.8167 26.5697C34.0025 26.3839 34.1496 26.163 34.2494 25.92C34.3558 25.6799 34.4107 25.4202 34.4107 25.1577C34.4107 24.8951 34.3558 24.6354 34.2494 24.3953C34.1521 24.151 34.0046 23.9297 33.8165 23.7459C31.3777 21.3107 28.0723 19.943 24.6259 19.943C21.1795 19.943 17.874 21.3107 15.4353 23.7459L8.37648 30.8141C5.96087 33.2562 4.61015 36.5551 4.61949 39.9901C4.62884 43.425 5.9975 46.7165 8.42637 49.1454C10.8552 51.5743 14.1468 52.9429 17.5817 52.9523C21.0166 52.9616 24.3156 51.6109 26.7577 49.1953L31.7082 44.2353C31.8935 44.0498 32.0403 43.8297 32.1405 43.5875C32.2406 43.3452 32.292 43.0856 32.2918 42.8235C32.2936 42.5612 32.2429 42.3011 32.1427 42.0587C32.0424 41.8162 31.8947 41.5963 31.7082 41.4118C31.5236 41.2251 31.3037 41.0769 31.0614 40.9758C30.819 40.8746 30.5591 40.8225 30.2965 40.8225C30.0339 40.8225 29.7739 40.8746 29.5316 40.9758C29.2893 41.0769 29.0694 41.2251 28.8847 41.4118H28.8753Z" />
</svg>