<?xml version="1.0" encoding="UTF-8"?>
<svg viewBox="0 0 64 64" fill="currentColor" xmlns="http://www.w3.org/2000/svg">
  <path
    d="M22 19H54C54.5304 19 55.0391 18.7893 55.4142 18.4142C55.7893 18.0391 56 17.5304 56 17C56 16.4696 55.7893 15.9609 55.4142 15.5858C55.0391 15.2107 54.5304 15 54 15H22C21.4696 15 20.9609 15.2107 20.5858 15.5858C20.2107 15.9609 20 16.4696 20 17C20 17.5304 20.2107 18.0391 20.5858 18.4142C20.9609 18.7893 21.4696 19 22 19V19Z" />
  <path
    d="M54 30H22.0015C21.471 30 20.9623 30.2107 20.5873 30.5858C20.2122 30.9609 20.0015 31.4696 20.0015 32C20.0015 32.5304 20.2122 33.0391 20.5873 33.4142C20.9623 33.7893 21.471 34 22.0015 34H54C54.5304 34 55.0391 33.7893 55.4142 33.4142C55.7893 33.0391 56 32.5304 56 32C56 31.4696 55.7893 30.9609 55.4142 30.5858C55.0391 30.2107 54.5304 30 54 30Z" />
  <path
    d="M54 45H22.0015C21.471 45 20.9623 45.2107 20.5873 45.5858C20.2122 45.9609 20.0015 46.4696 20.0015 47C20.0015 47.5304 20.2122 48.0391 20.5873 48.4142C20.9623 48.7893 21.471 49 22.0015 49H54C54.5304 49 55.0391 48.7893 55.4142 48.4142C55.7893 48.0391 56 47.5304 56 47C56 46.4696 55.7893 45.9609 55.4142 45.5858C55.0391 45.2107 54.5304 45 54 45Z" />
  <path
    d="M11 20C12.6569 20 14 18.6569 14 17C14 15.3431 12.6569 14 11 14C9.34315 14 8 15.3431 8 17C8 18.6569 9.34315 20 11 20Z" />
  <path
    d="M11 35C12.6569 35 14 33.6569 14 32C14 30.3431 12.6569 29 11 29C9.34315 29 8 30.3431 8 32C8 33.6569 9.34315 35 11 35Z" />
  <path
    d="M11 50.0015C12.6569 50.0015 14 48.6583 14 47.0015C14 45.3446 12.6569 44.0015 11 44.0015C9.34315 44.0015 8 45.3446 8 47.0015C8 48.6583 9.34315 50.0015 11 50.0015Z" />
</svg>