<?xml version="1.0" encoding="UTF-8"?>
<svg viewBox="0 0 64 64" fill="currentColor" xmlns="http://www.w3.org/2000/svg">
  <path
    d="M53.9997 30.0002H9.99969C9.46926 30.0002 8.96055 30.2109 8.58548 30.5859C8.21041 30.961 7.99969 31.4697 7.99969 32.0002C7.99969 32.5306 8.21041 33.0393 8.58548 33.4144C8.96055 33.7894 9.46926 34.0002 9.99969 34.0002H53.9997C54.5301 34.0002 55.0388 33.7894 55.4139 33.4144C55.789 33.0393 55.9997 32.5306 55.9997 32.0002C55.9997 31.4697 55.789 30.961 55.4139 30.5859C55.0388 30.2109 54.5301 30.0002 53.9997 30.0002Z" />
  <path
    d="M9.99969 18.0002H53.9997C54.5301 18.0002 55.0388 17.7894 55.4139 17.4144C55.789 17.0393 55.9997 16.5306 55.9997 16.0002C55.9997 15.4697 55.789 14.961 55.4139 14.5859C55.0388 14.2109 54.5301 14.0002 53.9997 14.0002H9.99969C9.46926 14.0002 8.96055 14.2109 8.58548 14.5859C8.21041 14.961 7.99969 15.4697 7.99969 16.0002C7.99969 16.5306 8.21041 17.0393 8.58548 17.4144C8.96055 17.7894 9.46926 18.0002 9.99969 18.0002Z" />
  <path
    d="M53.9997 46.0002H9.99969C9.46926 46.0002 8.96055 46.2109 8.58548 46.5859C8.21041 46.961 7.99969 47.4697 7.99969 48.0002C7.99969 48.5306 8.21041 49.0393 8.58548 49.4144C8.96055 49.7894 9.46926 50.0002 9.99969 50.0002H53.9997C54.5301 50.0002 55.0388 49.7894 55.4139 49.4144C55.789 49.0393 55.9997 48.5306 55.9997 48.0002C55.9997 47.4697 55.789 46.961 55.4139 46.5859C55.0388 46.2109 54.5301 46.0002 53.9997 46.0002Z" />
</svg>