<?xml version="1.0" encoding="UTF-8"?>
<svg width="64" height="64" viewBox="0 0 64 64" fill="currentColor" xmlns="http://www.w3.org/2000/svg">
  <path
    d="M54 30H34V10C34 9.46957 33.7893 8.96086 33.4142 8.58579C33.0391 8.21071 32.5304 8 32 8C31.4696 8 30.9609 8.21071 30.5858 8.58579C30.2107 8.96086 30 9.46957 30 10V30H10C9.46957 30 8.96086 30.2107 8.58579 30.5858C8.21071 30.9609 8 31.4696 8 32C8 32.5304 8.21071 33.0391 8.58579 33.4142C8.96086 33.7893 9.46957 34 10 34H30V54C30 54.5304 30.2107 55.0391 30.5858 55.4142C30.9609 55.7893 31.4696 56 32 56C32.5304 56 33.0391 55.7893 33.4142 55.4142C33.7893 55.0391 34 54.5304 34 54V34H54C54.5304 34 55.0391 33.7893 55.4142 33.4142C55.7893 33.0391 56 32.5304 56 32C56 31.4696 55.7893 30.9609 55.4142 30.5858C55.0391 30.2107 54.5304 30 54 30Z" />
</svg>