<?xml version="1.0" encoding="UTF-8"?>
<svg width="64" height="64" viewBox="0 0 64 64" fill="currentColor" xmlns="http://www.w3.org/2000/svg">
  <g clip-path="url(#clip0_1816_29610)">
    <path
      d="M64 56.8889L64 7.11111C64 3.2 60.8 -1.39876e-07 56.8889 -3.10837e-07L7.11111 -2.48669e-06C3.2 -2.65765e-06 3.67482e-06 3.2 3.50386e-06 7.11111L1.328e-06 56.8889C1.15704e-06 60.8 3.2 64 7.11111 64L56.8889 64C60.8 64 64 60.8 64 56.8889ZM7.11111 56.8889L7.11111 7.11111L56.8889 7.11111L56.8889 56.8889L7.11111 56.8889ZM39.1111 14.2222L39.1111 21.3333L14.2222 21.3333L14.2222 14.2222L39.1111 14.2222ZM49.7778 28.4444L49.7778 35.5556L14.2222 35.5556L14.2222 28.4444L49.7778 28.4444ZM28.4444 42.6667L28.4444 49.7778L14.2222 49.7778L14.2222 42.6667L28.4444 42.6667Z" />
  </g>
  <defs>
    <clipPath id="clip0_1816_29610">
      <rect width="64" height="64" transform="translate(64) rotate(90)" />
    </clipPath>
  </defs>
</svg>