<?xml version="1.0" encoding="UTF-8"?>
<svg width="64" height="64" viewBox="0 0 64 64" fill="currentColor" xmlns="http://www.w3.org/2000/svg">
  <path fill-rule="evenodd" clip-rule="evenodd"
    d="M12 9.99996H52C53.1046 9.99996 54 10.8954 54 12V52C54 53.1045 53.1046 54 52 54H12C10.8954 54 10 53.1045 10 52V12C10 10.8954 10.8954 9.99996 12 9.99996ZM8 12C8 9.79082 9.79086 7.99996 12 7.99996H52C54.2091 7.99996 56 9.79082 56 12V52C56 54.2091 54.2091 56 52 56H12C9.79086 56 8 54.2091 8 52V12ZM17.9515 41.6784C17.7264 42.0213 17.6 42.4864 17.6 42.9714C17.6 43.4564 17.7264 43.9215 17.9515 44.2644C18.1765 44.6073 18.4817 44.8 18.8 44.8H26C26.3183 44.8 26.6235 44.6073 26.8485 44.2644C27.0736 43.9215 27.2 43.4564 27.2 42.9714C27.2 42.4864 27.0736 42.0213 26.8485 41.6784C26.6235 41.3355 26.3183 41.1428 26 41.1428H18.8C18.4817 41.1428 18.1765 41.3355 17.9515 41.6784ZM17.9515 30.707C17.7264 31.0499 17.6 31.515 17.6 32C17.6 32.4849 17.7264 32.95 17.9515 33.293C18.1765 33.6359 18.4817 33.8285 18.8 33.8285H35.6C35.9182 33.8285 36.2235 33.6359 36.4485 33.293C36.6736 32.95 36.8 32.4849 36.8 32C36.8 31.515 36.6736 31.0499 36.4485 30.707C36.2235 30.3641 35.9182 30.1714 35.6 30.1714H18.8C18.4817 30.1714 18.1765 30.3641 17.9515 30.707ZM17.9515 19.7355C17.7264 20.0785 17.6 20.5436 17.6 21.0285C17.6 21.5135 17.7264 21.9786 17.9515 22.3215C18.1765 22.6645 18.4817 22.8571 18.8 22.8571H45.2C45.5182 22.8571 45.8235 22.6645 46.0485 22.3215C46.2736 21.9786 46.4 21.5135 46.4 21.0285C46.4 20.5436 46.2736 20.0785 46.0485 19.7355C45.8235 19.3926 45.5182 19.2 45.2 19.2H18.8C18.4817 19.2 18.1765 19.3926 17.9515 19.7355Z" />
</svg>