<?xml version="1.0" encoding="UTF-8"?>

<svg width="64" height="64" viewBox="0 0 64 64" fill="currentColor" xmlns="http://www.w3.org/2000/svg">
  <path
    d="M17.9515 41.6784C17.7264 42.0214 17.6 42.4865 17.6 42.9714C17.6 43.4564 17.7264 43.9215 17.9515 44.2644C18.1765 44.6073 18.4817 44.8 18.8 44.8H26C26.3183 44.8 26.6235 44.6073 26.8485 44.2644C27.0736 43.9215 27.2 43.4564 27.2 42.9714C27.2 42.4865 27.0736 42.0214 26.8485 41.6784C26.6235 41.3355 26.3183 41.1429 26 41.1429H18.8C18.4817 41.1429 18.1765 41.3355 17.9515 41.6784Z" />
  <path
    d="M17.9515 30.707C17.7264 31.0499 17.6 31.515 17.6 32C17.6 32.485 17.7264 32.9501 17.9515 33.293C18.1765 33.6359 18.4817 33.8286 18.8 33.8286H35.6C35.9183 33.8286 36.2235 33.6359 36.4485 33.293C36.6736 32.9501 36.8 32.485 36.8 32C36.8 31.515 36.6736 31.0499 36.4485 30.707C36.2235 30.3641 35.9183 30.1714 35.6 30.1714H18.8C18.4817 30.1714 18.1765 30.3641 17.9515 30.707Z" />
  <path
    d="M17.9515 19.7356C17.7264 20.0785 17.6 20.5436 17.6 21.0286C17.6 21.5135 17.7264 21.9786 17.9515 22.3216C18.1765 22.6645 18.4817 22.8571 18.8 22.8571H45.2C45.5183 22.8571 45.8235 22.6645 46.0485 22.3216C46.2736 21.9786 46.4 21.5135 46.4 21.0286C46.4 20.5436 46.2736 20.0785 46.0485 19.7356C45.8235 19.3927 45.5183 19.2 45.2 19.2H18.8C18.4817 19.2 18.1765 19.3927 17.9515 19.7356Z" />
  <path fill-rule="evenodd" clip-rule="evenodd"
    d="M8 15.2C8 11.2235 11.2235 8 15.2 8H48.8C52.7765 8 56 11.2235 56 15.2V48.8C56 52.7765 52.7765 56 48.8 56H15.2C11.2235 56 8 52.7765 8 48.8V15.2ZM15.2 11.6H48.8C50.7882 11.6 52.4 13.2118 52.4 15.2V48.8C52.4 50.7882 50.7882 52.4 48.8 52.4H15.2C13.2118 52.4 11.6 50.7882 11.6 48.8V15.2C11.6 13.2118 13.2118 11.6 15.2 11.6Z" />
</svg>