<?xml version="1.0" encoding="UTF-8"?>
<svg width="36" height="36" viewBox="0 0 36 36" fill="currentColor" xmlns="http://www.w3.org/2000/svg">
  <!-- <circle cx="18" cy="18" r="18" fill="#262626" /> -->
  <path fill-rule="evenodd" clip-rule="evenodd"
    d="M22.2538 17.0176C22.2538 17.7052 22.1183 18.3861 21.8552 19.0214C21.592 19.6567 21.2063 20.2339 20.7201 20.7201C20.2339 21.2064 19.6567 21.5921 19.0214 21.8552C18.3861 22.1183 17.7052 22.2538 17.0176 22.2538C16.33 22.2538 15.6491 22.1183 15.0138 21.8552C14.3785 21.5921 13.8013 21.2064 13.3151 20.7201C12.8288 20.2339 12.4432 19.6567 12.18 19.0214C11.9169 18.3861 11.7814 17.7052 11.7814 17.0176C11.7814 15.6289 12.3331 14.2971 13.3151 13.3151C14.297 12.3331 15.6289 11.7814 17.0176 11.7814C18.4063 11.7814 19.7382 12.3331 20.7201 13.3151C21.7021 14.2971 22.2538 15.6289 22.2538 17.0176ZM21.22 22.2777C19.8757 23.3517 18.1711 23.8702 16.4565 23.7267C14.7418 23.5832 13.1472 22.7886 12.0001 21.5061C10.8529 20.2236 10.2404 18.5506 10.2883 16.8306C10.3362 15.1106 11.0408 13.4742 12.2575 12.2575C13.4742 11.0409 15.1106 10.3362 16.8306 10.2883C18.5506 10.2404 20.2236 10.853 21.5061 12.0001C22.7886 13.1472 23.5832 14.7418 23.7267 16.4565C23.8702 18.1712 23.3517 19.8757 22.2777 21.22L26.5235 25.4643C26.593 25.5338 26.6482 25.6164 26.6858 25.7073C26.7235 25.7981 26.7428 25.8955 26.7428 25.9939C26.7428 26.0923 26.7235 26.1896 26.6858 26.2805C26.6482 26.3714 26.593 26.4539 26.5235 26.5235C26.4539 26.593 26.3714 26.6482 26.2805 26.6859C26.1896 26.7235 26.0922 26.7429 25.9939 26.7429C25.8955 26.7429 25.7981 26.7235 25.7073 26.6859C25.6164 26.6482 25.5338 26.593 25.4643 26.5235L21.2215 22.2777H21.22Z" />
</svg>