<?xml version="1.0" encoding="UTF-8"?>
<svg width="64" height="64" viewBox="0 0 64 64" fill="currentColor" xmlns="http://www.w3.org/2000/svg">
  <path fill-rule="evenodd" clip-rule="evenodd"
    d="M55.6051 17.2497C54.1106 21.6607 50.4422 24.357 47.4114 23.2719C44.3806 22.1869 43.1351 17.7314 44.6296 13.3203C46.1241 8.90921 49.7926 6.21293 52.8234 7.298C55.8542 8.38306 57.0996 12.8386 55.6051 17.2497ZM19.0171 15.1518C22.2253 18.4596 22.9837 23.0294 20.711 25.3587C18.4382 27.688 13.995 26.8948 10.7868 23.587C7.57854 20.2793 6.82016 15.7095 9.09289 13.3802C11.3656 11.0509 15.8088 11.844 19.0171 15.1518ZM34.8468 36.3315C38.2665 36.499 41.2122 32.8921 41.4261 28.2754C41.6401 23.6587 39.0414 19.7803 35.6217 19.6128C32.202 19.4454 29.2564 23.0522 29.0424 27.6689C28.8284 32.2857 31.4272 36.164 34.8468 36.3315ZM25.5361 41.6011C25.3428 45.7726 22.6811 49.0317 19.5912 48.8804C16.5012 48.729 14.1531 45.2246 14.3464 41.053C14.5398 36.8815 17.2014 33.6224 20.2913 33.7737C23.3813 33.9251 25.7295 37.4295 25.5361 41.6011ZM38.5291 55.5184C41.1192 57.2571 45.0197 55.832 47.2412 52.3353C49.4626 48.8386 49.1638 44.5944 46.5737 42.8557C43.9836 41.1169 40.0831 42.542 37.8617 46.0387C35.6403 49.5355 35.9391 53.7796 38.5291 55.5184Z" />
</svg>