<?xml version="1.0" encoding="UTF-8"?>
<svg width="64" height="64" viewBox="0 0 64 64" fill="none" xmlns="http://www.w3.org/2000/svg">
  <path
    d="M18 36C8.05887 36 0 27.9411 0 18C0 8.05887 8.05887 0 18 0C27.9411 0 36 8.05887 36 18C36 27.9411 27.9411 36 18 36Z"
    fill="#262626" />
  <path
    d="M23.75 17.25C23.9312 17.25 24.1063 17.3157 24.2429 17.4348C24.3795 17.5539 24.4684 17.7185 24.493 17.898L24.5 18V23.25C24.5 23.9503 24.2329 24.6242 23.7531 25.1343C23.2733 25.6444 22.617 25.9522 21.918 25.995L21.75 26H14.25C13.5497 26 12.8758 25.7329 12.3657 25.2531C11.8556 24.7733 11.5478 24.117 11.505 23.418L11.5 23.25V18C11.5001 17.81 11.5722 17.6271 11.702 17.4882C11.8317 17.3494 12.0093 17.2649 12.1989 17.252C12.3885 17.239 12.5759 17.2985 12.7233 17.4184C12.8707 17.5384 12.9671 17.7098 12.993 17.898L13 18V23.25C13 23.897 13.492 24.43 14.122 24.494L14.25 24.5H21.75C22.0593 24.4999 22.3575 24.3851 22.5871 24.1779C22.8167 23.9707 22.9613 23.6857 22.993 23.378L23 23.25V18C23 17.8011 23.079 17.6103 23.2197 17.4697C23.3603 17.329 23.5511 17.25 23.75 17.25ZM13.227 14.462L17.47 10.22C17.597 10.093 17.7653 10.0158 17.9445 10.0024C18.1236 9.98897 18.3015 10.0403 18.446 10.147L18.53 10.22L22.773 14.462C22.9089 14.5955 22.989 14.7756 22.9969 14.9659C23.0048 15.1562 22.9401 15.3424 22.8158 15.4867C22.6914 15.631 22.5169 15.7226 22.3275 15.7429C22.1381 15.7632 21.9481 15.7107 21.796 15.596L21.712 15.523L18.75 12.56V20.25C18.75 20.4312 18.6844 20.6063 18.5652 20.7429C18.4461 20.8795 18.2816 20.9684 18.102 20.993L18 21C17.8188 21 17.6437 20.9344 17.5071 20.8152C17.3705 20.6961 17.2816 20.5316 17.257 20.352L17.25 20.25V12.56L14.288 15.523C14.161 15.6503 13.9924 15.7277 13.8131 15.7411C13.6337 15.7545 13.4556 15.703 13.311 15.596L13.227 15.523C13.0997 15.396 13.0223 15.2274 13.0089 15.0481C12.9955 14.8687 13.047 14.6906 13.154 14.546L13.227 14.462L17.47 10.22L13.227 14.462Z"
    fill="#E5E5E5" />
</svg>