<?xml version="1.0" encoding="UTF-8"?>
<svg viewBox="0 0 64 64" fill="currentColor" xmlns="http://www.w3.org/2000/svg">
  <path
    d="M32.0001 7.99999C18.7465 7.99999 8.00006 18.7464 8.00006 32C8.00006 45.2536 18.7465 56 32.0001 56C45.2536 56 56.0001 45.2536 56.0001 32C56.0001 18.7464 45.2536 7.99999 32.0001 7.99999ZM43.534 26.0911C43.5501 26.3428 43.5501 26.6053 43.5501 26.8625C43.5501 34.7268 37.5608 43.7857 26.6161 43.7857C23.2411 43.7857 20.1126 42.8053 17.4768 41.1178C17.959 41.1714 18.4197 41.1928 18.9126 41.1928C21.6983 41.1928 24.259 40.25 26.3001 38.6536C23.6858 38.6 21.4893 36.8857 20.7393 34.5286C21.6554 34.6625 22.4804 34.6625 23.4233 34.4214C22.0772 34.1479 20.8672 33.4169 19.9991 32.3524C19.1309 31.2879 18.658 29.9557 18.6608 28.5821V28.5071C19.4483 28.9518 20.3751 29.225 21.3447 29.2625C20.5296 28.7192 19.8611 27.9833 19.3985 27.1198C18.9359 26.2563 18.6936 25.2921 18.6929 24.3125C18.6929 23.2036 18.9822 22.1911 19.5018 21.3125C20.996 23.1518 22.8604 24.6561 24.974 25.7277C27.0876 26.7992 29.403 27.414 31.7697 27.5321C30.9286 23.4875 33.9501 20.2143 37.5822 20.2143C39.2965 20.2143 40.8393 20.9321 41.9268 22.0893C43.2715 21.8375 44.5572 21.3339 45.7036 20.6589C45.259 22.0357 44.3268 23.1982 43.0893 23.9321C44.2893 23.8036 45.4465 23.4714 46.5179 23.0053C45.709 24.1946 44.6965 25.25 43.534 26.0911Z" />
</svg>