<?xml version="1.0" encoding="UTF-8"?>
<svg viewBox="0 0 64 64" fill="currentColor" xmlns="http://www.w3.org/2000/svg">
  <path fill-rule="evenodd" clip-rule="evenodd"
    d="M32 8C18.7452 8 8 18.7452 8 32C8 45.2548 18.7452 56 32 56C45.2548 56 56 45.2548 56 32C56 18.7452 45.2548 8 32 8ZM31.3316 28.338L31.2812 27.5075C31.1301 25.3551 32.4563 23.3891 34.5548 22.6265C35.327 22.3553 36.6364 22.3214 37.4926 22.5587C37.8283 22.6604 38.4663 22.9993 38.9195 23.3044L39.7421 23.8637L40.6486 23.5756C41.1523 23.423 41.8238 23.1688 42.1259 22.9993C42.4113 22.8468 42.6631 22.762 42.6631 22.8129C42.6631 23.101 42.042 24.084 41.5216 24.6263C40.8165 25.389 41.018 25.4568 42.4449 24.9483C43.3011 24.6602 43.3178 24.6602 43.15 24.9822C43.0492 25.1517 42.5288 25.7449 41.9748 26.2872C41.0347 27.2194 40.9844 27.3211 40.9844 28.1007C40.9844 29.304 40.4136 31.8123 39.8428 33.1851C38.7852 35.7612 36.5189 38.422 34.2526 39.7609C31.063 41.6422 26.8157 42.1167 23.24 41.0151C22.0481 40.6422 20 39.6931 20 39.5237C20 39.4728 20.6211 39.405 21.3766 39.3881C22.9546 39.3542 24.5326 38.9135 25.8756 38.1339L26.7822 37.5916L25.7413 37.2357C24.264 36.7272 22.9378 35.5578 22.6021 34.4562C22.5013 34.1003 22.5349 34.0833 23.475 34.0833L24.4487 34.0664L23.6261 33.6766C22.6524 33.1851 21.7627 32.3546 21.3262 31.5072C21.0072 30.8971 20.6044 29.3548 20.7219 29.2362C20.7554 29.1854 21.108 29.287 21.5109 29.4226C22.6692 29.8463 22.8203 29.7446 22.1488 29.0328C20.8897 27.7448 20.5036 25.8296 21.108 24.0162L21.3934 23.2027L22.5013 24.3043C24.7677 26.5245 27.4369 27.8465 30.4922 28.2363L31.3316 28.338Z" />
</svg>