<?xml version="1.0" encoding="UTF-8"?>
<svg viewBox="0 0 64 64" fill="currentColor" xmlns="http://www.w3.org/2000/svg">
  <path
    d="M20.075 31.9999C20.0834 34.4936 20.3957 36.9769 21.005 39.3949H30.725V25.1749H20.87C20.3515 27.4132 20.0848 29.7024 20.075 31.9999Z" />
  <path
    d="M33.275 25.1749V39.3949H42.995C43.6296 36.98 43.9671 34.4966 44 31.9999C43.9951 29.703 43.7335 27.4138 43.22 25.1749H33.275Z" />
  <path
    d="M32 8C27.2533 8 22.6131 9.40757 18.6663 12.0447C14.7195 14.6819 11.6434 18.4302 9.8269 22.8156C8.0104 27.201 7.53512 32.0266 8.46116 36.6822C9.38721 41.3377 11.673 45.6141 15.0294 48.9706C18.3859 52.327 22.6623 54.6128 27.3178 55.5388C31.9734 56.4649 36.799 55.9896 41.1844 54.1731C45.5698 52.3566 49.3181 49.2805 51.9553 45.3337C54.5924 41.3869 56 36.7467 56 32C56 25.6348 53.4714 19.5303 48.9706 15.0294C44.4697 10.5286 38.3652 8 32 8ZM50.33 42.065H44.9C43.8733 45.2792 42.3554 48.3151 40.4 51.065C38.9571 51.6939 37.4474 52.1568 35.9 52.445C38.6712 49.4338 40.8041 45.8926 42.17 42.035H33.29V52.76H30.755V42.065H21.83C23.1941 45.928 25.3271 49.4743 28.1 52.49C26.5845 52.2049 25.1054 51.7522 23.69 51.14C21.7277 48.3671 20.2095 45.3054 19.19 42.065H13.67C13.1908 41.1908 12.7748 40.2835 12.425 39.35H18.425C17.8628 36.9399 17.571 34.4747 17.555 32C17.5558 29.7061 17.7972 27.4186 18.275 25.175H12.14C12.4555 24.2442 12.8364 23.337 13.28 22.46H18.995C20.0673 18.8886 21.7304 15.522 23.915 12.5C25.3004 11.926 26.7438 11.5035 28.22 11.24C25.236 14.4426 22.984 18.2556 21.62 22.415H30.755V11H33.29V22.46H42.425C41.0635 18.3073 38.8167 14.4996 35.84 11.3C37.3139 11.5445 38.7572 11.9468 40.145 12.5C42.3169 15.5001 43.9746 18.8408 45.05 22.385H50.705C51.1486 23.262 51.5295 24.1692 51.845 25.1H45.755C46.2431 27.3676 46.4895 29.6805 46.49 32C46.4823 34.4892 46.1955 36.9697 45.635 39.395H51.635C51.2639 40.3148 50.8278 41.2071 50.33 42.065Z" />
</svg>