<?xml version="1.0" encoding="UTF-8"?>
<svg viewBox="0 0 64 64" fill="currentColor" xmlns="http://www.w3.org/2000/svg">
  <path
    d="M34.8284 32L51.4142 15.4142C51.7888 15.0391 51.9992 14.5305 51.9991 14.0003C51.9989 13.4701 51.7882 12.9616 51.4133 12.5867C51.0384 12.2118 50.5299 12.0011 49.9997 12.0009C49.4695 12.0008 48.9609 12.2112 48.5858 12.5858L32 29.1716L15.4142 12.5858C15.039 12.2112 14.5305 12.0008 14.0003 12.0009C13.47 12.0011 12.9616 12.2118 12.5867 12.5867C12.2118 12.9616 12.0011 13.4701 12.0009 14.0003C12.0008 14.5305 12.2111 15.0391 12.5858 15.4142L29.1716 32L12.5858 48.5858C12.3999 48.7715 12.2524 48.992 12.1517 49.2347C12.0511 49.4774 11.9992 49.7375 11.9991 50.0003C11.9991 50.263 12.0508 50.5232 12.1513 50.766C12.2518 51.0087 12.3991 51.2293 12.5849 51.4151C12.7707 51.6009 12.9913 51.7482 13.234 51.8487C13.4768 51.9493 13.737 52.0009 13.9997 52.0009C14.2625 52.0008 14.5226 51.9489 14.7653 51.8483C15.008 51.7476 15.2285 51.6001 15.4142 51.4142L32 34.8284L48.5858 51.4142C48.9609 51.7889 49.4695 51.9993 49.9997 51.9991C50.5299 51.9989 51.0384 51.7882 51.4133 51.4133C51.7882 51.0384 51.9989 50.53 51.9991 49.9998C51.9992 49.4696 51.7888 48.961 51.4142 48.5858L34.8284 32Z" />
</svg>