<?xml version="1.0" encoding="UTF-8"?><svg id="hashpire" data-name="hashpire" xmlns="http://www.w3.org/2000/svg"
  viewBox="0 0 1000 296">
  <defs>
    <style>
      .cls-1 {
        fill: #fff;
      }

      .cls-2 {
        fill: #ff9700;
      }
    </style>
  </defs>
  <path class="cls-1"
    d="M369.75,220.92a13,13,0,0,1-13-13V178.12c0-17.55-4.54-24.51-16.33-24.51-11.5,0-17.7,6.36-17.7,24.81v42.5H315.6a13,13,0,0,1-13-13V109.15h7.26A12.86,12.86,0,0,1,322.69,122v20.86c6.05-5.44,12.7-7.86,21.33-7.86,20.11,0,32.82,11,32.82,38.57v47.34Z" />
  <path class="cls-1"
    d="M459.71,220.92V210c-8,9.08-16,12.86-27.83,12.86-24.5,0-42.2-18.3-42.2-43.56,0-25.56,17.85-44.17,42.65-44.17,12.11,0,20.42,3.93,27.38,13.16V137.13h5.59A12.87,12.87,0,0,1,478.17,150v70.93Zm-25.26-67.31c-14.37,0-24.5,10.89-24.5,26.17,0,14.67,10.13,24.65,24.81,24.65,15.27,0,24.35-10.89,24.35-24.8C459.11,164.35,448.82,153.61,434.45,153.61Z" />
  <path class="cls-1"
    d="M518.54,222.89c-16.64,0-28.59-9.08-30.71-28.59H508.1c2,7.11,5.29,10.13,11.19,10.13,5.14,0,9.08-3.48,9.08-8.16,0-4.84-.76-6.2-14.22-10.74-16.64-5.6-23.29-12.56-23.29-24.81,0-14.37,12.25-25.56,27.83-25.56,14.22,0,26.77,9.38,27.52,25.11H526.55c-.9-4.39-3.63-6.66-7.86-6.66-4.39,0-7.72,3-7.72,7.11,0,4.39.46,4.69,14.22,9.08,17.55,5.44,23.3,12.1,23.3,24.5C548.49,210.33,535.33,222.89,518.54,222.89Z" />
  <path class="cls-1"
    d="M626.85,220.92a13,13,0,0,1-13-13V178.12c0-17.55-4.54-24.51-16.34-24.51-11.49,0-17.69,6.36-17.69,24.81v42.5H572.7a13,13,0,0,1-13-13V109.15h7.25A12.87,12.87,0,0,1,579.79,122v20.86c6.05-5.44,12.7-7.86,21.32-7.86,20.12,0,32.82,11,32.82,38.57v47.34Z" />
  <path class="cls-2"
    d="M696.24,222.89c-10.29,0-18.15-3-25.71-9.84V248.9h-7.09a13,13,0,0,1-13-13V137.13h18.45V147c6.51-7.56,16.19-11.8,27.53-11.8,24.2,0,41.75,18.3,41.75,43.56C738.14,204.13,720.44,222.89,696.24,222.89Zm-2.42-69.28c-13.92,0-24.5,10.89-24.5,25.26,0,14.67,10.58,25.56,24.8,25.56,13.31,0,23.75-11,23.75-25.26C717.87,164.65,707.43,153.61,693.82,153.61Z" />
  <path class="cls-2"
    d="M750.22,207.89V137.13h20.12v83.79h-7.09A13,13,0,0,1,750.22,207.89Zm.15-82.86V104.91h7.26a12.86,12.86,0,0,1,12.86,12.86V125Z" />
  <path class="cls-2"
    d="M806.63,174.33v46.59h-7.08a13,13,0,0,1-13-13V137.13H805v8.16c5.29-7.71,9.53-10.13,18.15-10.13h1.51v19.36C812.53,154.82,806.63,161.33,806.63,174.33Z" />
  <path class="cls-2"
    d="M914.93,188H850c2.42,10.13,11.19,16.48,23.14,16.48,8.32,0,13.31-2.26,18.45-8.32h21.93c-5.59,17.25-23,26.78-39.92,26.78-25.57,0-45.38-19.06-45.38-43.56a43.83,43.83,0,0,1,44.16-44.17c25,0,43.26,19.06,43.26,45.07A32.9,32.9,0,0,1,914.93,188Zm-42.2-34.34c-12,0-20.12,5.9-23.29,16.64h46.43C893.3,159.51,885.13,153.61,872.73,153.61Z" />
  <path class="cls-1" d="M112.42,211.8a9,9,0,0,0,9,9h16v-18h-16A9,9,0,0,0,112.42,211.8Z" />
  <path class="cls-1" d="M186.85,243.77a9,9,0,0,0,18,0V225.28h-18Z" />
  <path class="cls-1" d="M225.3,202.81H164.37v18H225.3a9,9,0,1,0,0-18Z" />
  <path class="cls-1"
    d="M140.72,150.33h18.33c-7.26-52-62.12-72-64.62-72.88a9,9,0,0,0-6,17C90.43,95.12,133.39,111.05,140.72,150.33Z" />
  <path class="cls-1" d="M141.89,243.77a9,9,0,0,0,18,0V177.3h-18Z" />
  <path class="cls-1" d="M121.41,154.82a9,9,0,0,0,0,18h60.94v-11c0-2.43.27-4.7.45-7H121.41Z" />
  <path class="cls-1" d="M225.3,154.82H209.8a59.24,59.24,0,0,0-.48,7v11h16a9,9,0,1,0,0-18Z" />
  <path class="cls-1"
    d="M263.74,82.92a9,9,0,0,0-11.46-5.47c-2.67,1-65.43,23.79-65.43,84.4v36.47h18V161.85c0-47.78,51.27-66.67,53.45-67.45A9,9,0,0,0,263.74,82.92Z" />
  <path class="cls-2"
    d="M173.36,120.93a33,33,0,1,0-33-33A33,33,0,0,0,173.36,120.93Zm0-47.95a15,15,0,1,1-15,15A15,15,0,0,1,173.36,73Z" />
</svg>