<?xml version="1.0" encoding="UTF-8"?>
<svg width="140" height="40" viewBox="0 0 140 40" fill="none" xmlns="http://www.w3.org/2000/svg">
  <path
    d="M56.1245 21.5328C55.6067 21.5328 55.1925 21.3222 54.8819 21.0063C54.5712 20.6904 54.3641 20.1639 54.3641 19.6375V15.3202C54.3641 12.7931 53.7428 11.7401 52.0861 11.7401C50.5328 11.7401 49.6009 12.6878 49.6009 15.3202V21.4275H48.5654C48.0476 21.4275 47.6334 21.2169 47.3228 20.901C47.0122 20.5851 46.8051 20.0586 46.8051 19.5322V5.31689H47.8405C48.3583 5.31689 48.7725 5.52749 49.0831 5.84339C49.3938 6.15928 49.6009 6.68577 49.6009 7.10696V10.1606C50.4293 9.42353 51.3612 9.00233 52.6038 9.00233C55.3996 9.00233 57.16 10.5818 57.16 14.5831V21.4275H56.1245V21.5328Z"
    fill="white" />
  <path
    d="M68.6539 21.5331V19.9536C67.5149 21.2172 66.3758 21.849 64.8226 21.849C61.4055 21.849 58.9203 19.2165 58.9203 15.5311C58.9203 11.8457 61.4055 9.10791 64.8226 9.10791C66.4794 9.10791 67.6184 9.6344 68.6539 11.0033V9.4238H69.3787C69.8965 9.4238 70.3107 9.6344 70.6213 9.95029C70.932 10.2662 71.1391 10.7927 71.1391 11.2139V21.4278L68.6539 21.5331ZM65.1332 11.8457C63.1658 11.8457 61.7161 13.4251 61.7161 15.6364C61.7161 17.7424 63.1658 19.2165 65.1332 19.2165C67.3078 19.2165 68.5504 17.6371 68.5504 15.6364C68.5504 13.3198 67.1007 11.8457 65.1332 11.8457Z"
    fill="white" />
  <path
    d="M76.8344 21.8492C74.5563 21.8492 72.8995 20.5856 72.5889 17.7425H75.3847C75.6953 18.7955 76.1095 19.2167 76.9379 19.2167C77.6628 19.2167 78.1805 18.6902 78.1805 18.0584C78.1805 17.3213 78.077 17.1107 76.2131 16.479C73.935 15.6366 73.0031 14.6889 73.0031 12.8988C73.0031 10.7929 74.6598 9.21338 76.8344 9.21338C78.8018 9.21338 80.5621 10.5823 80.6657 12.7935H77.9734C77.8699 12.1617 77.4557 11.8458 76.8344 11.8458C76.2131 11.8458 75.7989 12.267 75.7989 12.8988C75.7989 13.5306 75.9024 13.5306 77.7663 14.1624C80.2515 14.8995 80.9763 15.9525 80.9763 17.7425C80.9763 19.9538 79.1125 21.8492 76.8344 21.8492Z"
    fill="white" />
  <path
    d="M91.849 21.5328C91.3312 21.5328 90.917 21.3222 90.6064 21.0063C90.2957 20.6904 90.0886 20.1639 90.0886 19.6375V15.3202C90.0886 12.7931 89.4673 11.7401 87.8105 11.7401C86.2573 11.7401 85.3254 12.6878 85.3254 15.3202V21.4275H84.2899C83.7721 21.4275 83.3579 21.2169 83.0473 20.901C82.7366 20.5851 82.5295 20.0586 82.5295 19.5322V5.31689H83.565C84.0828 5.31689 84.497 5.52749 84.8076 5.84339C85.1183 6.15928 85.3254 6.68577 85.3254 7.10696V10.1606C86.1538 9.42353 87.0857 9.00233 88.3283 9.00233C91.1241 9.00233 92.8844 10.5818 92.8844 14.5831V21.4275H91.849V21.5328Z"
    fill="white" />
  <path
    d="M101.583 21.849C100.133 21.849 99.0973 21.4278 97.9583 20.3748V25.5344H96.9228C96.4051 25.5344 95.9909 25.3238 95.6802 25.0079C95.3696 24.692 95.1625 24.1655 95.1625 23.6391V9.4238H97.7512V10.7927C98.6831 9.7397 100.029 9.10791 101.583 9.10791C104.896 9.10791 107.381 11.7404 107.381 15.4258C107.381 19.1112 104.896 21.849 101.583 21.849ZM101.168 11.8457C99.2009 11.8457 97.7512 13.4251 97.7512 15.5311C97.7512 17.6371 99.2009 19.2165 101.168 19.2165C103.032 19.2165 104.482 17.6371 104.482 15.5311C104.585 13.4251 103.136 11.8457 101.168 11.8457Z"
    fill="#FF9700" />
  <path
    d="M109.038 19.6376V9.42365H111.834V21.5329H110.798C110.591 21.5329 110.281 21.5329 110.074 21.4276C109.866 21.3223 109.659 21.217 109.452 21.0064C109.245 20.7959 109.142 20.5853 109.038 20.3747C109.038 20.1641 109.038 19.8482 109.038 19.6376ZM109.038 7.63358V4.79053H110.074C110.281 4.79053 110.591 4.79053 110.798 4.89583C111.006 5.00112 111.213 5.10642 111.42 5.31702C111.627 5.52761 111.73 5.73821 111.834 5.94881C111.937 6.1594 111.937 6.37 111.937 6.6859V7.73888H109.038V7.63358Z"
    fill="#FF9700" />
  <path
    d="M116.908 14.794V21.5331H115.872C115.355 21.5331 114.94 21.3225 114.63 21.0066C114.319 20.6907 114.112 20.1642 114.112 19.6377V9.4238H116.701V10.5821C117.426 9.4238 118.047 9.10791 119.186 9.10791H119.393V11.951C117.736 11.951 116.908 12.8986 116.908 14.794Z"
    fill="#FF9700" />
  <path
    d="M131.922 16.7946H122.914C123.224 18.2688 124.467 19.2164 126.124 19.2164C127.263 19.2164 127.988 18.9005 128.712 18.0582H131.715C130.99 20.5853 128.505 21.9542 126.124 21.9542C122.603 21.9542 119.807 19.2164 119.807 15.6363C119.807 14.7939 119.911 13.9515 120.221 13.2144C120.532 12.4774 120.946 11.7403 121.567 11.1085C122.189 10.4767 122.81 10.0555 123.535 9.7396C124.26 9.4237 125.088 9.21311 125.917 9.31841C129.437 9.31841 131.922 12.0562 131.922 15.8469C132.026 16.0575 132.026 16.3734 131.922 16.7946ZM126.124 11.8456C124.467 11.8456 123.328 12.6879 122.914 14.2674H129.334C128.919 12.6879 127.78 11.8456 126.124 11.8456Z"
    fill="#FF9700" />
  <path
    d="M12.9445 30.6937C12.9445 30.9043 12.9445 31.1149 13.048 31.3255C13.1516 31.5361 13.2551 31.7467 13.3587 31.852C13.4622 31.9573 13.6693 32.1679 13.8764 32.1679C14.0835 32.2732 14.2906 32.2732 14.4977 32.2732H17.19V29.1143H14.4977C14.2906 29.1143 14.0835 29.1143 13.8764 29.2196C13.6693 29.3249 13.5658 29.4302 13.3587 29.5354C13.2551 29.6407 13.1516 29.8513 13.048 30.0619C12.9445 30.2725 12.9445 30.4831 12.9445 30.6937Z"
    fill="white" />
  <path
    d="M25.5775 36.38C25.5775 36.8012 25.7846 37.2224 25.9917 37.5382C26.3023 37.8541 26.7165 37.9594 27.0271 37.9594C27.4413 37.9594 27.8555 37.7488 28.0626 37.5382C28.3733 37.2224 28.4768 36.8012 28.4768 36.38V33.1157H25.3704V36.38H25.5775Z"
    fill="white" />
  <path
    d="M32.1011 29.1143H21.7462V32.2732H32.1011C32.5153 32.2732 32.8259 32.0626 33.1365 31.7467C33.4472 31.4308 33.5507 31.0096 33.5507 30.5884C33.5507 30.1672 33.4472 29.746 33.1365 29.4302C32.9295 29.3249 32.5153 29.1143 32.1011 29.1143Z"
    fill="white" />
  <path
    d="M17.8113 19.8472H20.9177C19.6752 10.6862 10.3557 7.1061 9.94154 7.00081C9.52735 6.89551 9.11315 6.89551 8.8025 7.1061C8.49186 7.3167 8.18121 7.6326 8.07766 7.94849C7.97411 8.36968 7.97411 8.79088 8.07766 9.10677C8.18121 9.52796 8.49186 9.73856 8.90605 9.94915C9.2167 10.0545 16.4651 12.8975 17.8113 19.8472Z"
    fill="white" />
  <path
    d="M17.9148 36.3798C17.9148 36.5904 17.9148 36.801 18.0183 37.0116C18.1219 37.2222 18.2254 37.3275 18.329 37.5381C18.4325 37.6434 18.6396 37.854 18.8467 37.854C19.0538 37.9593 19.2609 37.9593 19.468 37.9593C19.6751 37.9593 19.8822 37.9593 20.0893 37.854C20.2964 37.7487 20.4 37.6434 20.6071 37.5381C20.7106 37.4328 20.8142 37.2222 20.9177 37.0116C21.0213 36.801 21.0213 36.5904 21.0213 36.3798V24.5864H17.9148V36.3798V36.3798Z"
    fill="white" />
  <path
    d="M14.4977 20.6904C14.2906 20.6904 14.0835 20.6904 13.8764 20.7957C13.6693 20.901 13.4622 21.0063 13.3587 21.1116C13.2551 21.2169 13.048 21.4275 13.048 21.6381C12.9445 21.8487 12.9445 22.0593 12.9445 22.2699C12.9445 22.4805 12.9445 22.6911 13.048 22.9017C13.1516 23.1123 13.2551 23.3229 13.3587 23.4282C13.4622 23.5335 13.6693 23.7441 13.8764 23.7441C14.0835 23.8494 14.2906 23.8494 14.4977 23.8494H24.8526V21.954C24.8526 21.5328 24.8526 21.1116 24.9561 20.6904H14.4977Z"
    fill="white" />
  <path
    d="M32.101 20.6904H29.5123C29.5123 21.1116 29.4088 21.5328 29.4088 21.954V23.8494H32.101C32.5152 23.8494 32.8259 23.6388 33.1365 23.3229C33.4472 23.007 33.5507 22.5858 33.5507 22.1646C33.5507 21.7434 33.4472 21.3222 33.1365 21.0063C32.9294 20.7957 32.5152 20.6904 32.101 20.6904Z"
    fill="white" />
  <path
    d="M38.7282 7.94898C38.6246 7.73838 38.5211 7.52779 38.4175 7.42249C38.314 7.31719 38.1069 7.10659 37.8998 7.00129C37.6927 6.896 37.4856 6.896 37.2785 6.896C37.0714 6.896 36.8643 6.896 36.6572 7.00129C36.243 7.21189 25.5775 11.2132 25.5775 21.9536V28.3768H28.6839V21.9536C28.6839 13.5298 37.382 10.1602 37.7962 10.0549C38.2104 9.94964 38.5211 9.63375 38.6246 9.21256C38.8317 8.79136 38.8317 8.37017 38.7282 7.94898Z"
    fill="white" />
  <path
    d="M23.2993 14.6881C24.4384 14.6881 25.4738 14.3722 26.4058 13.7404C27.3377 13.1086 28.0626 12.1609 28.4768 11.108C28.891 10.055 28.9945 8.8967 28.7874 7.73842C28.5803 6.58014 28.0626 5.52716 27.2342 4.79007C26.5093 3.84239 25.4738 3.31589 24.4384 3.1053C23.2993 2.8947 22.2638 3 21.2283 3.42119C20.1928 3.84239 19.3645 4.57947 18.7432 5.52716C18.1219 6.47484 17.8112 7.63312 17.8112 8.7914C17.8112 10.3709 18.4325 11.845 19.468 12.898C20.3999 14.0563 21.8496 14.6881 23.2993 14.6881ZM23.2993 6.15894C23.8171 6.15894 24.3348 6.26424 24.749 6.58014C25.1632 6.89603 25.4738 7.31722 25.6809 7.84372C25.888 8.37021 25.888 8.8967 25.7845 9.42319C25.6809 9.94968 25.4738 10.3709 25.0597 10.7921C24.749 11.2133 24.2313 11.4239 23.7135 11.5292C23.1958 11.6344 22.678 11.5292 22.2638 11.4239C21.8496 11.2133 21.4354 10.8974 21.1248 10.4762C20.8141 10.055 20.7106 9.52849 20.7106 9.002C20.7106 8.26491 21.0212 7.63312 21.4354 7.10663C21.9532 6.47484 22.678 6.15894 23.2993 6.15894Z"
    fill="#FF9700" />
  <path
    d="M49.7944 30.9338C50.9765 30.9338 51.9436 31.8311 51.9436 33.2893C51.9436 34.7475 50.9765 35.7571 49.7944 35.7571C48.9347 35.7571 48.3974 35.3084 48.075 34.8597V35.7571H47.3228V29.4756H48.075V31.9433C48.3974 31.3825 49.0421 30.9338 49.7944 30.9338ZM49.6869 31.6068C48.8272 31.6068 48.1825 32.2798 48.1825 33.2893C48.1825 34.411 48.9347 35.084 49.6869 35.084C50.5466 35.084 51.1914 34.411 51.1914 33.2893C51.1914 32.2798 50.5466 31.6068 49.6869 31.6068Z"
    fill="white" />
  <path
    d="M56.0272 31.0459H56.7794L54.0929 37.8882H53.3406L54.2003 35.6448L52.3735 31.0459H53.2332L54.6302 34.8597L56.0272 31.0459Z"
    fill="white" />
  <path d="M59.3584 29.6992H63.227V30.3722H61.7226V35.7564H60.9703V30.3722H59.3584V29.6992Z" fill="white" />
  <path
    d="M66.1286 35.7572C64.8391 35.7572 63.8719 34.8599 63.8719 33.2895C63.8719 31.8313 64.8391 30.8218 66.1286 30.8218C67.4182 30.8218 68.3853 31.7191 68.3853 33.2895C68.4928 34.8599 67.4182 35.7572 66.1286 35.7572ZM66.1286 35.0842C66.8809 35.0842 67.6331 34.5234 67.6331 33.2895C67.6331 32.0556 66.8809 31.607 66.1286 31.607C65.3764 31.607 64.6242 32.1678 64.6242 33.2895C64.7316 34.5234 65.3764 35.0842 66.1286 35.0842Z"
    fill="white" />
  <path
    d="M72.6837 33.0652C72.6837 32.0556 72.1464 31.607 71.3942 31.607C70.642 31.607 70.1047 32.0556 70.1047 33.0652V35.6451H69.3524V30.9339H70.1047V31.607C70.427 31.1583 70.9643 30.8218 71.5017 30.8218C72.5763 30.8218 73.3285 31.4948 73.3285 32.8408V35.6451H72.5763V33.0652H72.6837Z"
    fill="white" />
  <path
    d="M76.5524 30.9336C77.4121 30.9336 77.9494 31.3823 78.2718 31.8309V30.9336H79.0241V35.7569C79.0241 37.1029 78.1644 38.0002 76.8748 38.0002C75.6927 38.0002 74.833 37.3272 74.7256 36.4299H75.4778C75.6927 36.9907 76.1226 37.3272 76.8748 37.3272C77.6271 37.3272 78.2718 36.7664 78.2718 35.7569V34.7473C77.9494 35.196 77.4121 35.7569 76.5524 35.7569C75.3704 35.7569 74.4032 34.7473 74.4032 33.2891C74.4032 31.8309 75.3704 30.9336 76.5524 30.9336ZM76.6599 31.6066C75.8002 31.6066 75.1554 32.2796 75.1554 33.2891C75.1554 34.4108 75.8002 35.0839 76.6599 35.0839C77.5196 35.0839 78.1644 34.4108 78.1644 33.2891C78.2718 32.2796 77.5196 31.6066 76.6599 31.6066Z"
    fill="white" />
  <path
    d="M86.1166 32.9521H83.2151V35.6442H82.4629V29.6992H83.2151V32.2791H86.1166V29.6992H86.8688V35.6442H86.1166V32.9521Z"
    fill="white" />
  <path
    d="M92.1345 35.6448H91.3823V34.9718C91.0599 35.4205 90.5226 35.757 89.9853 35.757C88.9107 35.757 88.1584 35.084 88.1584 33.738V31.0459H88.9107V33.738C88.9107 34.6353 89.448 35.1962 90.2002 35.1962C90.9525 35.1962 91.4898 34.7475 91.4898 33.738V31.1581H92.242V35.6448H92.1345Z"
    fill="white" />
  <path
    d="M95.2509 30.9336C96.1106 30.9336 96.6479 31.3823 96.9703 31.8309V30.9336H97.7225V35.6447H96.9703V34.7473C96.6479 35.3082 96.1106 35.6447 95.2509 35.6447C94.0688 35.6447 93.1017 34.6352 93.1017 33.177C93.1017 31.8309 93.9614 30.9336 95.2509 30.9336ZM95.3584 31.6066C94.4987 31.6066 93.8539 32.2796 93.8539 33.2891C93.8539 34.4108 94.4987 35.0839 95.3584 35.0839C96.2181 35.0839 96.8628 34.4108 96.8628 33.2891C96.8628 32.2796 96.2181 31.6066 95.3584 31.6066Z"
    fill="white" />
  <path d="M101.806 29.6992V35.0833H103.848V35.7564H101.054V29.6992H101.806Z" fill="white" />
  <path
    d="M106.427 30.9336C107.287 30.9336 107.824 31.3823 108.146 31.8309V30.9336H108.899V35.6447H108.146V34.7473C107.824 35.3082 107.287 35.6447 106.427 35.6447C105.245 35.6447 104.278 34.6352 104.278 33.177C104.385 31.8309 105.245 30.9336 106.427 30.9336ZM106.642 31.6066C105.782 31.6066 105.137 32.2796 105.137 33.2891C105.137 34.4108 105.782 35.0839 106.642 35.0839C107.502 35.0839 108.146 34.4108 108.146 33.2891C108.146 32.2796 107.394 31.6066 106.642 31.6066Z"
    fill="white" />
  <path
    d="M112.552 30.9338C113.734 30.9338 114.702 31.8311 114.702 33.2893C114.702 34.7475 113.734 35.7571 112.552 35.7571C111.693 35.7571 111.155 35.3084 110.833 34.8597V35.7571H110.081V29.4756H110.833V31.9433C111.155 31.3825 111.8 30.9338 112.552 30.9338ZM112.445 31.6068C111.585 31.6068 110.94 32.2798 110.94 33.2893C110.94 34.411 111.693 35.084 112.445 35.084C113.305 35.084 113.949 34.411 113.949 33.2893C113.949 32.2798 113.305 31.6068 112.445 31.6068Z"
    fill="white" />
  <path
    d="M117.281 35.7569C116.206 35.7569 115.454 35.196 115.454 34.2987H116.206C116.206 34.7473 116.636 35.0839 117.281 35.0839C117.818 35.0839 118.248 34.7473 118.248 34.4108C118.248 33.4013 115.561 33.9622 115.561 32.2796C115.561 31.6066 116.206 30.9336 117.173 30.9336C118.14 30.9336 118.785 31.4944 118.893 32.3918H118.14C118.14 31.9431 117.71 31.6066 117.173 31.6066C116.636 31.6066 116.313 31.8309 116.313 32.2796C116.313 33.4013 118.893 32.7283 119 34.4108C118.893 35.196 118.248 35.7569 117.281 35.7569Z"
    fill="white" />
</svg>