<?xml version="1.0" encoding="UTF-8"?>
<svg width="128" height="35" viewBox="0 0 128 35" fill="none" xmlns="http://www.w3.org/2000/svg">
  <path
    d="M44.5241 27.5927C44.0041 27.5927 43.5054 27.3862 43.1377 27.0187C42.7701 26.6511 42.5635 26.1525 42.5635 25.6327V21.1527C42.5635 18.5123 41.8815 17.4651 40.1043 17.4651C38.3734 17.4651 37.4435 18.4213 37.4435 21.1989V27.5969H36.3764C35.8564 27.5969 35.3577 27.3904 34.99 27.0229C34.6223 26.6553 34.4157 26.1567 34.4157 25.6369V10.7661H35.5081C36.0218 10.7661 36.5144 10.9701 36.8776 11.3332C37.2408 11.6963 37.4449 12.1888 37.4449 12.7023V15.8439C38.3552 15.0235 39.3579 14.6595 40.6561 14.6595C43.6852 14.6595 45.5996 16.3213 45.5996 20.4653V27.5927H44.5241Z"
    fill="white" />
  <path
    d="M58.0719 27.5927V25.9533C56.8648 27.3197 55.6576 27.8895 53.8818 27.8895C50.1917 27.8895 47.5266 25.1343 47.5266 21.3305C47.5266 17.4833 50.2141 14.6819 53.949 14.6819C55.7696 14.6819 57.03 15.2741 58.0719 16.6629V14.9801H58.9122C59.426 14.9801 59.9188 15.184 60.2822 15.5471C60.6457 15.9102 60.85 16.4026 60.8504 16.9163V27.5941L58.0719 27.5927ZM54.2683 17.4609C52.1047 17.4609 50.5782 19.1003 50.5782 21.3991C50.5782 23.6083 52.1047 25.1105 54.3146 25.1105C56.6155 25.1105 57.9809 23.4711 57.9809 21.3767C57.9781 19.0765 56.4376 17.4609 54.2683 17.4609Z"
    fill="white" />
  <path
    d="M66.9311 27.8895C64.4257 27.8895 62.6262 26.5231 62.3097 23.5859H65.3626C65.6581 24.6555 66.1595 25.1105 67.0431 25.1105C67.8176 25.1105 68.41 24.5869 68.41 23.8813C68.41 23.1533 68.2965 22.9475 66.2701 22.2643C63.7633 21.4243 62.762 20.3743 62.762 18.5305C62.762 16.3675 64.6064 14.6819 66.9521 14.6819C69.0934 14.6819 70.984 16.0945 71.0974 18.4619H68.1383C67.9982 17.8025 67.5921 17.4609 66.9535 17.4609C66.3149 17.4609 65.7926 17.9159 65.7926 18.5305C65.7926 19.1913 65.8612 19.2305 67.9338 19.8969C70.5765 20.7159 71.4419 21.7169 71.4419 23.5859C71.4419 25.9995 69.4617 27.8895 66.9311 27.8895Z"
    fill="white" />
  <path
    d="M83.242 27.5927C82.7221 27.5927 82.2234 27.3862 81.8557 27.0187C81.488 26.6511 81.2814 26.1525 81.2814 25.6327V21.1527C81.2814 18.5123 80.598 17.4651 78.8223 17.4651C77.0899 17.4651 76.1614 18.4213 76.1614 21.1989V27.5969H75.0929C74.5729 27.5969 74.0742 27.3904 73.7065 27.0229C73.3388 26.6553 73.1323 26.1567 73.1323 25.6369V10.7661H74.2232C74.736 10.7676 75.2274 10.9722 75.5896 11.3351C75.9518 11.698 76.1554 12.1896 76.1558 12.7023V15.8439C77.0661 15.0235 78.0688 14.6595 79.367 14.6595C82.3962 14.6595 84.3092 16.3213 84.3092 20.4653V27.5927H83.242Z"
    fill="white" />
  <path
    d="M93.6893 27.8893C92.1404 27.8893 90.9556 27.4329 89.8171 26.4081V31.8051H88.7499C88.2299 31.8051 87.7312 31.5986 87.3636 31.231C86.9959 30.8635 86.7893 30.3649 86.7893 29.8451V14.9799H89.5678V16.4597C90.5481 15.3215 92.0059 14.6831 93.7131 14.6831C97.3542 14.6831 100.001 17.4383 100.001 21.2407C100.002 25.0599 97.3304 27.8893 93.6893 27.8893ZM93.3252 17.4607C91.2245 17.4607 89.635 19.1001 89.635 21.2631C89.635 23.4709 91.2301 25.1103 93.37 25.1103C95.3754 25.1103 96.9467 23.4485 96.9467 21.3079C96.9495 19.1225 95.3782 17.4607 93.328 17.4607H93.3252Z"
    fill="#FF9700" />
  <path
    d="M101.822 25.6313V14.9801H104.852V27.5941H103.784C103.526 27.5943 103.27 27.5436 103.032 27.445C102.794 27.3464 102.578 27.2018 102.395 27.0195C102.213 26.8372 102.069 26.6207 101.97 26.3825C101.872 26.1443 101.821 25.889 101.822 25.6313ZM101.845 13.1601V10.1277H102.932C103.187 10.1277 103.439 10.1778 103.674 10.2752C103.909 10.3726 104.123 10.5153 104.303 10.6952C104.483 10.8751 104.625 11.0887 104.723 11.3238C104.82 11.5589 104.87 11.8108 104.87 12.0653V13.1601H101.845Z"
    fill="#FF9700" />
  <path
    d="M110.318 20.5799V27.5925H109.25C108.73 27.5925 108.231 27.386 107.863 27.0184C107.496 26.6509 107.289 26.1523 107.289 25.6325V14.9799H110.074V16.2091C110.871 15.0471 111.508 14.6831 112.807 14.6831H113.035V17.5979C111.206 17.6399 110.318 18.6199 110.318 20.5799Z"
    fill="#FF9700" />
  <path
    d="M126.626 22.6296H116.854C117.218 24.1542 118.534 25.1104 120.34 25.1104C121.592 25.1104 122.344 24.7688 123.118 23.8588H126.42C125.58 26.4544 122.958 27.8894 120.407 27.8894C116.558 27.8894 113.574 25.0194 113.574 21.3304C113.567 20.4555 113.735 19.5879 114.067 18.7782C114.399 17.9685 114.888 17.2329 115.507 16.6142C116.126 15.9955 116.862 15.506 117.672 15.1743C118.482 14.8425 119.35 14.6751 120.225 14.6818C123.984 14.6818 126.74 17.5518 126.74 21.4676C126.748 21.8581 126.71 22.2482 126.626 22.6296ZM120.271 17.4608C118.471 17.4608 117.242 18.3484 116.77 19.9654H123.762C123.369 18.3484 122.138 17.4608 120.271 17.4608V17.4608Z"
    fill="#FF9700" />
  <path
    d="M5.7726 26.2205C5.77168 26.3988 5.80603 26.5755 5.87369 26.7405C5.94135 26.9055 6.04098 27.0555 6.16684 27.1818C6.2927 27.3082 6.44232 27.4084 6.60707 27.4767C6.77182 27.545 6.94846 27.5801 7.12682 27.5799H9.53417V24.8667H7.12682C6.94898 24.8667 6.77289 24.9017 6.60858 24.9698C6.44428 25.0378 6.29499 25.1375 6.16924 25.2632C6.04349 25.3889 5.94374 25.5382 5.87569 25.7024C5.80763 25.8667 5.7726 26.0427 5.7726 26.2205V26.2205Z"
    fill="white" />
  <path
    d="M16.9803 31.0325C16.9803 31.3915 17.123 31.7359 17.377 31.9897C17.6309 32.2436 17.9754 32.3863 18.3345 32.3863C18.6937 32.3863 19.0382 32.2436 19.2921 31.9897C19.5461 31.7359 19.6888 31.3915 19.6888 31.0325V28.2493H16.9803V31.0325Z"
    fill="white" />
  <path
    d="M22.7725 24.8667H13.5955V27.5799H22.7725C23.124 27.5686 23.4572 27.4211 23.7018 27.1686C23.9464 26.916 24.0832 26.5783 24.0832 26.2268C24.0832 25.8753 23.9464 25.5376 23.7018 25.285C23.4572 25.0325 23.124 24.885 22.7725 24.8737V24.8667Z"
    fill="white" />
  <path
    d="M10.0341 16.9653H12.7944C11.7007 9.1379 3.43948 6.1265 3.06417 5.9949C2.73385 5.90274 2.38086 5.9393 2.07646 6.09719C1.77205 6.25508 1.53891 6.52254 1.42408 6.84558C1.30926 7.16863 1.32131 7.52319 1.4578 7.83769C1.59429 8.1522 1.84506 8.40323 2.15948 8.5401C2.46058 8.6535 8.9306 11.0601 10.0341 16.9653Z"
    fill="white" />
  <path
    d="M10.2106 31.0324C10.2106 31.2102 10.2456 31.3862 10.3137 31.5505C10.3817 31.7147 10.4815 31.864 10.6072 31.9897C10.733 32.1154 10.8823 32.2151 11.0466 32.2832C11.2109 32.3512 11.387 32.3862 11.5648 32.3862C11.7427 32.3862 11.9188 32.3512 12.0831 32.2832C12.2474 32.2151 12.3967 32.1154 12.5224 31.9897C12.6482 31.864 12.7479 31.7147 12.816 31.5505C12.884 31.3862 12.919 31.2102 12.919 31.0324V21.0266H10.2106V31.0324Z"
    fill="white" />
  <path
    d="M7.12683 17.6401C6.94542 17.6343 6.76469 17.665 6.59537 17.7303C6.42606 17.7957 6.27162 17.8944 6.14123 18.0207C6.01084 18.1469 5.90716 18.298 5.83636 18.4651C5.76555 18.6322 5.72906 18.8118 5.72906 18.9932C5.72906 19.1747 5.76555 19.3543 5.83636 19.5213C5.90716 19.6884 6.01084 19.8395 6.14123 19.9658C6.27162 20.092 6.42606 20.1907 6.59537 20.2561C6.76469 20.3215 6.94542 20.3521 7.12683 20.3463H16.3039V18.7013C16.3039 18.3345 16.3431 17.9915 16.3711 17.6429H7.12823L7.12683 17.6401Z"
    fill="white" />
  <path
    d="M22.7725 17.6399H20.4366C20.3917 17.991 20.3679 18.3444 20.3652 18.6983V20.3461H22.7725C23.124 20.3348 23.4572 20.1873 23.7018 19.9348C23.9464 19.6822 24.0832 19.3445 24.0832 18.993C24.0832 18.6415 23.9464 18.3037 23.7018 18.0512C23.4572 17.7987 23.124 17.6512 22.7725 17.6399V17.6399Z"
    fill="white" />
  <path
    d="M28.5591 6.8181C28.5001 6.65065 28.4086 6.49649 28.2899 6.36445C28.1712 6.2324 28.0276 6.12507 27.8673 6.0486C27.7071 5.97213 27.5333 5.92803 27.3559 5.91881C27.1786 5.9096 27.0011 5.93545 26.8338 5.9949C26.4319 6.1349 16.9803 9.5761 16.9803 18.7013V24.1893H19.6888V18.7013C19.6888 11.5067 27.4108 8.6633 27.7385 8.5457C28.0762 8.42507 28.3523 8.17543 28.5062 7.85155C28.66 7.52767 28.6791 7.156 28.5591 6.8181Z"
    fill="white" />
  <path
    d="M14.9497 12.5398C15.9316 12.5398 16.8914 12.2487 17.7078 11.7034C18.5242 11.158 19.1605 10.3829 19.5363 9.47603C19.9121 8.56916 20.0104 7.57127 19.8188 6.60854C19.6273 5.64581 19.1544 4.76149 18.4601 4.0674C17.7658 3.37331 16.8812 2.90063 15.9182 2.70913C14.9552 2.51764 13.957 2.61592 13.0498 2.99156C12.1427 3.3672 11.3673 4.00332 10.8218 4.81948C10.2763 5.63564 9.98511 6.59519 9.98511 7.57677C9.98659 8.89259 10.5101 10.1541 11.4408 11.0845C12.3715 12.0149 13.6334 12.5383 14.9497 12.5398V12.5398ZM14.9497 5.32137C15.3963 5.3211 15.8329 5.45326 16.2044 5.70113C16.5758 5.949 16.8654 6.30145 17.0365 6.71389C17.2075 7.12632 17.2523 7.5802 17.1653 8.01811C17.0782 8.45602 16.8632 8.85827 16.5474 9.17397C16.2316 9.48968 15.8292 9.70465 15.3911 9.79168C14.9531 9.87872 14.4991 9.8339 14.0865 9.66292C13.6739 9.49193 13.3214 9.20246 13.0734 8.83111C12.8255 8.45977 12.6933 8.02325 12.6936 7.57677C12.6936 6.97848 12.9312 6.40466 13.3543 5.98147C13.7773 5.55828 14.3512 5.32034 14.9497 5.31997V5.32137Z"
    fill="#FF9700" />
</svg>