<?xml version="1.0" encoding="UTF-8"?>
<svg width="255" height="128" viewBox="0 0 255 128" fill="none" xmlns="http://www.w3.org/2000/svg">
  <g clip-path="url(#clip0_1767_31950)">
    <path d="M54.2915 92.7484H19.7331C18.6142 92.7484 17.6987 91.8322 17.6987 90.7122V77.5025C17.6987 77.0952 17.8259 76.688 18.0547 76.3317L53.4015 25.7323C53.783 25.1978 54.3933 24.8669 55.0798 24.8669H73.9484C75.0673 24.8669 75.9828 25.7832 75.9828 26.9031V73.6846C75.9828 74.8045 76.8982 75.7208 78.0171 75.7208H83.3827C84.5016 75.7208 85.417 76.6371 85.417 77.757V90.7122C85.417 91.8322 84.5016 92.7484 83.3827 92.7484H78.0171C76.8982 92.7484 75.9828 93.6647 75.9828 94.7846V105.678C75.9828 106.798 75.0673 107.714 73.9484 107.714H58.3602C57.2413 107.714 56.3259 106.798 56.3259 105.678V94.7846C56.3259 93.6647 55.4104 92.7484 54.2915 92.7484ZM57.6991 73.6846V53.2718C57.6991 51.2611 55.0799 50.472 53.961 52.1519L40.458 72.5647C39.568 73.9137 40.5343 75.7208 42.1617 75.7208H55.6647C56.7836 75.7208 57.6991 74.83 57.6991 73.6846Z" fill="#737373" />
    <path d="M207.046 92.7484H172.487C171.368 92.7484 170.453 91.8322 170.453 90.7122V77.5025C170.453 77.0952 170.58 76.688 170.809 76.3317L206.156 25.7323C206.537 25.1978 207.147 24.8669 207.834 24.8669H226.703C227.821 24.8669 228.737 25.7832 228.737 26.9031V73.6846C228.737 74.8045 229.652 75.7208 230.771 75.7208H236.137C237.256 75.7208 238.171 76.6371 238.171 77.757V90.7122C238.171 91.8322 237.256 92.7484 236.137 92.7484H230.771C229.652 92.7484 228.737 93.6647 228.737 94.7846V105.678C228.737 106.798 227.821 107.714 226.703 107.714H211.114C209.995 107.714 209.08 106.798 209.08 105.678V94.7846C209.08 93.6647 208.165 92.7484 207.046 92.7484ZM210.453 73.6846V53.2718C210.453 51.2611 207.834 50.472 206.715 52.1519L193.212 72.5647C192.322 73.9137 193.288 75.7208 194.916 75.7208H208.419C209.538 75.7208 210.453 74.83 210.453 73.6846Z" fill="#737373" />
    <path d="M132.08 88.0906H122.951C121.985 88.0906 121.171 88.7524 120.967 89.6941L119.009 98.7552C118.806 99.6969 117.967 100.359 117.026 100.359H108.38C107.083 100.359 106.117 99.1624 106.396 97.8898L107.973 90.5595C108.253 89.2869 107.286 88.0906 105.99 88.0906H98.6913C97.5724 88.0906 96.657 87.1743 96.657 86.0544V77.7824C96.657 76.6625 97.5724 75.7462 98.6913 75.7462H109.499C110.465 75.7462 111.279 75.0845 111.482 74.1427L112.855 67.7287C113.135 66.4561 112.169 65.2598 110.872 65.2598H103.828C102.709 65.2598 101.794 64.3436 101.794 63.2237V54.9771C101.794 53.8572 102.709 52.9409 103.828 52.9409H114.305C115.271 52.9409 116.085 52.2791 116.288 51.3374L118.145 42.6836C118.348 41.7418 119.187 41.0801 120.128 41.0801H128.774C130.071 41.0801 131.037 42.2763 130.758 43.549L129.257 50.472C128.978 51.7446 129.944 52.9409 131.241 52.9409H140.37C141.336 52.9409 142.15 52.2791 142.353 51.3374L144.21 42.6836C144.413 41.7418 145.252 41.0801 146.193 41.0801H154.839C156.136 41.0801 157.103 42.2763 156.823 43.549L155.322 50.472C155.043 51.7446 156.009 52.9409 157.306 52.9409H162.672C163.79 52.9409 164.706 53.8572 164.706 54.9771V63.2491C164.706 64.369 163.79 65.2853 162.672 65.2853H153.873C152.907 65.2853 152.093 65.9471 151.889 66.8888L150.516 73.3028C150.237 74.5754 151.203 75.7717 152.5 75.7717H157.56C158.679 75.7717 159.595 76.688 159.595 77.8079V86.0799C159.595 87.1998 158.679 88.1161 157.56 88.1161H148.991C148.024 88.1161 147.21 88.7778 147.007 89.7196L145.049 98.7552C144.846 99.6969 144.006 100.359 143.066 100.359H134.42C133.123 100.359 132.156 99.1624 132.436 97.8898L134.013 90.5595C134.318 89.2869 133.377 88.0906 132.08 88.0906ZM136.962 65.2598H127.833C126.867 65.2598 126.053 65.9216 125.85 66.8633L124.477 73.2773C124.197 74.55 125.163 75.7462 126.46 75.7462H135.589C136.556 75.7462 137.369 75.0845 137.573 74.1427L138.946 67.7287C139.226 66.4561 138.259 65.2598 136.962 65.2598Z" fill="#737373" />
  </g>
  <defs>
    <clipPath id="clip0_1767_31950">
      <rect width="254.293" height="128" fill="white" />
    </clipPath>
  </defs>
</svg>