<?xml version="1.0" encoding="utf-8"?>
<!-- Generator: Adobe Illustrator 25.4.1, SVG Export Plug-In . SVG Version: 6.00 Build 0)  -->
<svg version="1.1" id="Layer_1" xmlns="http://www.w3.org/2000/svg" xmlns:xlink="http://www.w3.org/1999/xlink" x="0px" y="0px"
	 viewBox="0 0 1439.8 754" style="enable-background:new 0 0 1439.8 754;" xml:space="preserve">
<style type="text/css">
	.st0{fill:#FFFFFF;}
	.st1{fill:#1E1E1E;}
	.st2{fill:none;stroke:#262626;}
	.st3{opacity:0.5;}
	.st4{fill:#737373;}
	.st5{opacity:0.5;fill:none;stroke:#262626;stroke-width:48;enable-background:new    ;}
</style>
<rect x="-0.2" class="st0" width="1440" height="754"/>
<rect x="-0.2" class="st1" width="1440" height="754"/>
<rect x="0.3" y="0.5" class="st2" width="1439" height="753"/>
<g class="st3">
	<path class="st4" d="M1200.8,518c1.6,0,3-1.3,3-3c0-1.6-1.3-3-3-3c-1.7,0-3,1.3-3,3C1197.8,516.6,1199.1,518,1200.8,518z"/>
	<path class="st4" d="M1200.8,543.9c1.6,0,3-1.3,3-3c0-1.6-1.3-3-3-3c-1.7,0-3,1.3-3,3C1197.8,542.6,1199.1,543.9,1200.8,543.9z"/>
	<path class="st4" d="M1200.8,595.8c1.6,0,3-1.3,3-3c0-1.6-1.3-3-3-3c-1.7,0-3,1.3-3,3C1197.8,594.5,1199.1,595.8,1200.8,595.8z"/>
	<path class="st4" d="M1200.8,647.7c1.6,0,3-1.3,3-3c0-1.6-1.3-3-3-3c-1.7,0-3,1.3-3,3C1197.8,646.4,1199.1,647.7,1200.8,647.7z"/>
	<path class="st4" d="M1200.8,673.7c1.6,0,3-1.3,3-3s-1.3-3-3-3c-1.7,0-3,1.3-3,3S1199.1,673.7,1200.8,673.7z"/>
	<path class="st4" d="M1200.8,569.9c1.6,0,3-1.3,3-3c0-1.6-1.3-3-3-3c-1.7,0-3,1.3-3,3C1197.8,568.5,1199.1,569.9,1200.8,569.9z"/>
	<path class="st4" d="M1200.8,621.8c1.6,0,3-1.3,3-3c0-1.6-1.3-3-3-3c-1.7,0-3,1.3-3,3C1197.8,620.4,1199.1,621.8,1200.8,621.8z"/>
	<path class="st4" d="M1226.7,518c1.6,0,3-1.3,3-3c0-1.6-1.3-3-3-3c-1.6,0-3,1.3-3,3C1223.7,516.6,1225.1,518,1226.7,518z"/>
	<path class="st4" d="M1226.7,543.9c1.6,0,3-1.3,3-3c0-1.6-1.3-3-3-3c-1.6,0-3,1.3-3,3C1223.7,542.6,1225.1,543.9,1226.7,543.9z"/>
	<path class="st4" d="M1226.7,595.8c1.6,0,3-1.3,3-3c0-1.6-1.3-3-3-3c-1.6,0-3,1.3-3,3C1223.7,594.5,1225.1,595.8,1226.7,595.8z"/>
	<path class="st4" d="M1226.7,647.7c1.6,0,3-1.3,3-3c0-1.6-1.3-3-3-3c-1.6,0-3,1.3-3,3C1223.7,646.4,1225.1,647.7,1226.7,647.7z"/>
	<path class="st4" d="M1226.7,673.7c1.6,0,3-1.3,3-3s-1.3-3-3-3c-1.6,0-3,1.3-3,3S1225.1,673.7,1226.7,673.7z"/>
	<path class="st4" d="M1226.7,569.9c1.6,0,3-1.3,3-3c0-1.6-1.3-3-3-3c-1.6,0-3,1.3-3,3C1223.7,568.5,1225.1,569.9,1226.7,569.9z"/>
	<path class="st4" d="M1226.7,621.8c1.6,0,3-1.3,3-3c0-1.6-1.3-3-3-3c-1.6,0-3,1.3-3,3C1223.7,620.4,1225.1,621.8,1226.7,621.8z"/>
	<path class="st4" d="M1252.7,518c1.6,0,3-1.3,3-3c0-1.6-1.3-3-3-3c-1.7,0-3,1.3-3,3C1249.7,516.6,1251,518,1252.7,518z"/>
	<path class="st4" d="M1252.7,543.9c1.6,0,3-1.3,3-3c0-1.6-1.3-3-3-3c-1.7,0-3,1.3-3,3C1249.7,542.6,1251,543.9,1252.7,543.9z"/>
	<path class="st4" d="M1252.7,595.8c1.6,0,3-1.3,3-3c0-1.6-1.3-3-3-3c-1.7,0-3,1.3-3,3C1249.7,594.5,1251,595.8,1252.7,595.8z"/>
	<path class="st4" d="M1252.7,647.7c1.6,0,3-1.3,3-3c0-1.6-1.3-3-3-3c-1.7,0-3,1.3-3,3C1249.7,646.4,1251,647.7,1252.7,647.7z"/>
	<path class="st4" d="M1252.7,673.7c1.6,0,3-1.3,3-3s-1.3-3-3-3c-1.7,0-3,1.3-3,3S1251,673.7,1252.7,673.7z"/>
	<path class="st4" d="M1252.7,569.9c1.6,0,3-1.3,3-3c0-1.6-1.3-3-3-3c-1.7,0-3,1.3-3,3C1249.7,568.5,1251,569.9,1252.7,569.9z"/>
	<path class="st4" d="M1252.7,621.8c1.6,0,3-1.3,3-3c0-1.6-1.3-3-3-3c-1.7,0-3,1.3-3,3C1249.7,620.4,1251,621.8,1252.7,621.8z"/>
	<path class="st4" d="M1278.6,518c1.7,0,3-1.3,3-3c0-1.6-1.3-3-3-3c-1.6,0-3,1.3-3,3C1275.6,516.6,1277,518,1278.6,518z"/>
	<path class="st4" d="M1278.6,543.9c1.7,0,3-1.3,3-3c0-1.6-1.3-3-3-3c-1.6,0-3,1.3-3,3C1275.6,542.6,1277,543.9,1278.6,543.9z"/>
	<path class="st4" d="M1278.6,595.8c1.7,0,3-1.3,3-3c0-1.6-1.3-3-3-3c-1.6,0-3,1.3-3,3C1275.6,594.5,1277,595.8,1278.6,595.8z"/>
	<path class="st4" d="M1278.6,647.7c1.7,0,3-1.3,3-3c0-1.6-1.3-3-3-3c-1.6,0-3,1.3-3,3C1275.6,646.4,1277,647.7,1278.6,647.7z"/>
	<path class="st4" d="M1278.6,673.7c1.7,0,3-1.3,3-3s-1.3-3-3-3c-1.6,0-3,1.3-3,3S1277,673.7,1278.6,673.7z"/>
	<path class="st4" d="M1278.6,569.9c1.7,0,3-1.3,3-3c0-1.6-1.3-3-3-3c-1.6,0-3,1.3-3,3C1275.6,568.5,1277,569.9,1278.6,569.9z"/>
	<path class="st4" d="M1278.6,621.8c1.7,0,3-1.3,3-3c0-1.6-1.3-3-3-3c-1.6,0-3,1.3-3,3C1275.6,620.4,1277,621.8,1278.6,621.8z"/>
	<path class="st4" d="M1304.6,518c1.6,0,3-1.3,3-3c0-1.6-1.3-3-3-3c-1.6,0-3,1.3-3,3C1301.6,516.6,1302.9,518,1304.6,518z"/>
	<path class="st4" d="M1304.6,543.9c1.6,0,3-1.3,3-3c0-1.6-1.3-3-3-3c-1.6,0-3,1.3-3,3C1301.6,542.6,1302.9,543.9,1304.6,543.9z"/>
	<path class="st4" d="M1304.6,595.8c1.6,0,3-1.3,3-3c0-1.6-1.3-3-3-3c-1.6,0-3,1.3-3,3C1301.6,594.5,1302.9,595.8,1304.6,595.8z"/>
	<path class="st4" d="M1304.6,647.7c1.6,0,3-1.3,3-3c0-1.6-1.3-3-3-3c-1.6,0-3,1.3-3,3C1301.6,646.4,1302.9,647.7,1304.6,647.7z"/>
	<path class="st4" d="M1304.6,673.7c1.6,0,3-1.3,3-3s-1.3-3-3-3c-1.6,0-3,1.3-3,3S1302.9,673.7,1304.6,673.7z"/>
	<path class="st4" d="M1304.6,569.9c1.6,0,3-1.3,3-3c0-1.6-1.3-3-3-3c-1.6,0-3,1.3-3,3C1301.6,568.5,1302.9,569.9,1304.6,569.9z"/>
	<path class="st4" d="M1304.6,621.8c1.6,0,3-1.3,3-3c0-1.6-1.3-3-3-3c-1.6,0-3,1.3-3,3C1301.6,620.4,1302.9,621.8,1304.6,621.8z"/>
	<path class="st4" d="M1330.5,518c1.6,0,3-1.3,3-3c0-1.6-1.3-3-3-3c-1.7,0-3,1.3-3,3C1327.6,516.6,1328.9,518,1330.5,518z"/>
	<path class="st4" d="M1330.5,543.9c1.6,0,3-1.3,3-3c0-1.6-1.3-3-3-3c-1.7,0-3,1.3-3,3C1327.6,542.6,1328.9,543.9,1330.5,543.9z"/>
	<path class="st4" d="M1330.5,595.8c1.6,0,3-1.3,3-3c0-1.6-1.3-3-3-3c-1.7,0-3,1.3-3,3C1327.6,594.5,1328.9,595.8,1330.5,595.8z"/>
	<path class="st4" d="M1330.5,647.7c1.6,0,3-1.3,3-3c0-1.6-1.3-3-3-3c-1.7,0-3,1.3-3,3C1327.6,646.4,1328.9,647.7,1330.5,647.7z"/>
	<path class="st4" d="M1330.5,673.7c1.6,0,3-1.3,3-3s-1.3-3-3-3c-1.7,0-3,1.3-3,3S1328.9,673.7,1330.5,673.7z"/>
	<path class="st4" d="M1330.5,569.9c1.6,0,3-1.3,3-3c0-1.6-1.3-3-3-3c-1.7,0-3,1.3-3,3C1327.6,568.5,1328.9,569.9,1330.5,569.9z"/>
	<path class="st4" d="M1330.5,621.8c1.6,0,3-1.3,3-3c0-1.6-1.3-3-3-3c-1.7,0-3,1.3-3,3C1327.6,620.4,1328.9,621.8,1330.5,621.8z"/>
	<path class="st4" d="M1356.5,518c1.7,0,3-1.3,3-3c0-1.6-1.3-3-3-3c-1.6,0-3,1.3-3,3C1353.5,516.6,1354.8,518,1356.5,518z"/>
	<path class="st4" d="M1356.5,543.9c1.7,0,3-1.3,3-3c0-1.6-1.3-3-3-3c-1.6,0-3,1.3-3,3C1353.5,542.6,1354.8,543.9,1356.5,543.9z"/>
	<path class="st4" d="M1356.5,595.8c1.7,0,3-1.3,3-3c0-1.6-1.3-3-3-3c-1.6,0-3,1.3-3,3C1353.5,594.5,1354.8,595.8,1356.5,595.8z"/>
	<path class="st4" d="M1356.5,647.7c1.7,0,3-1.3,3-3c0-1.6-1.3-3-3-3c-1.6,0-3,1.3-3,3C1353.5,646.4,1354.8,647.7,1356.5,647.7z"/>
	<path class="st4" d="M1356.5,673.7c1.7,0,3-1.3,3-3s-1.3-3-3-3c-1.6,0-3,1.3-3,3S1354.8,673.7,1356.5,673.7z"/>
	<path class="st4" d="M1356.5,569.9c1.7,0,3-1.3,3-3c0-1.6-1.3-3-3-3c-1.6,0-3,1.3-3,3C1353.5,568.5,1354.8,569.9,1356.5,569.9z"/>
	<path class="st4" d="M1356.5,621.8c1.7,0,3-1.3,3-3c0-1.6-1.3-3-3-3c-1.6,0-3,1.3-3,3C1353.5,620.4,1354.8,621.8,1356.5,621.8z"/>
</g>
<path class="st5" d="M-0.3,323.5c69.3,0,125.5,56.2,125.5,125.5S69,574.5-0.3,574.5"/>
<path class="st5" d="M1439.4,355.5c-58.5,0-106-47.5-106-106s47.5-106,106-106"/>
<circle class="st5" cx="1001.8" cy="165" r="56"/>
<path class="st5" d="M544.7,0.5c0,67.8-55,122.8-122.8,122.8S299.1,68.3,299.1,0.5"/>
</svg>